<svg id="Layer_1" data-name="Layer 1" xmlns="http://www.w3.org/2000/svg" viewBox="0 0 459.1328 288.5862"><title>florida-keys</title><path d="M188.5625,273.409c27.3433-56.7071,28.0708-62.2779,33.03-68.5786H210.436a9.0274,9.0274,0,0,1,1.8858,5.78c0,3.6319-2.1494,9.543-4.9736,15.9961-2.5528,5.7774-5.2422,11.69-8.065,17.3321l-11.8257-30.2364c-1.3413-3.6284-1.0752-6.7182.2671-8.8715H175.9c2.2842,2.5586,3.7647,5.5131,5.7788,10.6206l14.1128,35.61c-2.7544,6.3223-8.3032,13.91-12.477,18.625a5.6781,5.6781,0,0,1,5.248,3.7227Z" transform="translate(-14.8848 -16.3611)" fill="#fff"/><path d="M25.62,149.4563c2.7578-2.3794,3.0117-4.2631,3.0117-7.3974V73.219c0-3.0083-.2539-5.0132-3.0117-7.3979H49.6963a75.7933,75.7933,0,0,0,11.0352-.7495c2.1308,2.8833,4.3886,5.7661,6.6445,8.4L65.9951,74.6C58.8506,68.4554,53.959,68.2058,34.65,68.2058V95.0384H51.8291c2.5059,0,10.78.125,15.9229-2.6314v8.3985c-5.1426-3.0079-13.417-3.3838-15.9229-3.3838H34.65v44.6372c0,3.1343.124,5.018,3.0078,7.3974Z" transform="translate(-14.8848 -16.3611)" fill="#fff"/><path d="M74.3965,149.4563c2.1318-2.5073,2.5088-5.0146,2.5088-8.7768V75.4768c0-2.8833-.377-5.2661-2.8838-6.8969l5.6416-3.6348c1.8818,1.8818,2.76,4.89,2.76,8.15V140.68c0,3.7622.5,6.27,2.6308,8.7768Z" transform="translate(-14.8848 -16.3611)" fill="#fff"/><path d="M137.2139,128.6433c0,13.4156-10.6573,22.1939-22.8194,22.1939-14.0449,0-22.6972-10.5337-22.6972-22.1939,0-13.5439,10.6592-22.1943,22.6972-22.1943C128.5635,106.449,137.2139,116.8548,137.2139,128.6433Zm-39.999-2.3828c0,15.6753,11.0341,22.0674,18.5585,22.0674,8.5254,0,15.9258-5.5171,15.9258-17.3037,0-15.7964-11.0361-21.9429-18.5576-21.9429C104.6143,109.0813,97.2149,114.472,97.2149,126.2605Z" transform="translate(-14.8848 -16.3611)" fill="#fff"/><path d="M163.9053,109.3328l-4.7637,3.8887c-2.51-3.7637-5.6445-3.7637-9.1543-.38,0,.38.126.7544.126,1.2549V140.68c0,3.7622.3769,6.27,2.5058,8.7768H141.9619c2.1319-2.5073,2.6348-5.0146,2.6348-8.7768V117.7351c0-2.8867-.5029-5.2675-3.0117-7.5258l5.6435-3.5108a8.216,8.216,0,0,1,2.2578,3.7622C153.8731,106.5721,159.1416,103.6907,163.9053,109.3328Z" transform="translate(-14.8848 -16.3611)" fill="#fff"/><path d="M169.6065,149.4563c2.1337-2.5073,2.6337-5.0146,2.6337-8.7768V117.2327c0-2.8833-.5-5.2676-3.01-7.0234l5.6435-3.5108a11.5472,11.5472,0,0,1,2.8838,8.15V140.68c0,3.7622.376,6.27,2.5078,8.7768Zm4.5156-64.4472a3.6355,3.6355,0,1,1,0,7.271,3.6355,3.6355,0,1,1,0-7.271Z" transform="translate(-14.8848 -16.3611)" fill="#fff"/><path d="M220.5947,75.4768c0-2.8833-.3759-5.2661-3.0088-6.8969l5.7676-3.6348c1.8809,1.8818,2.7588,4.5137,2.7588,8.15V140.68c0,3.7622.501,6.27,2.5078,8.7768h-8.0254v-4.7656a21.31,21.31,0,0,1-14.7959,6.1465c-13.542,0-20.3144-11.41-20.3144-21.0659,0-11.5371,8.2763-23.4488,22.32-23.4488a19.5073,19.5073,0,0,1,12.79,5.1421Zm-12.914,33.1021c-9.1553,0-16.6787,8.9053-16.6787,19.1875,0,10.5327,7.1474,20.31,16.5517,20.31a16.2467,16.2467,0,0,0,13.041-6.77V114.472A17.5855,17.5855,0,0,0,207.6807,108.5789Z" transform="translate(-14.8848 -16.3611)" fill="#fff"/><path d="M258.9443,106.3225c9.78,0,12.79,5.2686,12.79,11.0347v23.1973c0,3.0088-.125,5.8935,2.6338,8.9018h-8.1514v-4.7656c-4.3887,3.5147-8.2734,6.1465-14.42,6.1465-11.5332,0-18.4336-8.1514-18.4336-16.9272,0-10.5342,9.7812-16.6773,18.31-16.6773,6.27,0,10.4053,2.2578,14.543,6.1431v-6.6436c0-5.644-6.52-7.2744-15.7988-5.895Zm-6.52,13.4175c-6.5214,0-13.29,4.6387-13.29,13.6665,0,8.7769,6.8955,14.67,13.667,14.67,4.7646,0,8.7773-2.0048,13.416-6.394V127.3865C263.207,123.6267,258.9443,119.74,252.4238,119.74Z" transform="translate(-14.8848 -16.3611)" fill="#fff"/><path d="M309.4375,142.0589c0,3.1343.127,5.018,3.0107,7.3974H300.41c2.7588-2.3794,3.01-4.2631,3.01-7.3974V73.219c0-3.0083-.2509-5.0132-3.01-7.3979h12.038c-2.8837,2.3847-3.0107,4.39-3.0107,7.3979v27.3374L338.1524,72.97c3.01-2.8833,4.0136-5.1416,2.6328-7.1484h9.2793a92.7065,92.7065,0,0,0-7.4,6.521L314.58,99.3011,340.2842,138.8c2.0058,3.01,5.2656,8.2773,10.03,10.6567h-14.794c1.5039-1.1284,3.2588-2.0068-.7539-8.15L309.4375,102.06Z" transform="translate(-14.8848 -16.3611)" fill="#fff"/><path d="M386.9258,138.2991c-2.7578,7.6465-8.15,12.7876-16.5518,12.7876-10.4052,0-18.9345-8.1494-18.9345-22.8193,0-9.1563,6.7714-22.0694,18.5586-22.0694,11.2832,0,16.5527,10.0313,16.5527,15.1709H357.208c-1.6289,13.918,3.0108,27.0835,15.1729,27.0835,8.5254,0,11.2851-7.2724,12.915-10.6562Zm-6.7715-19.0615c.127-2.8818-3.0078-10.6587-10.9082-10.6587-6.8965,0-10.9082,6.0195-11.66,10.6587Z" transform="translate(-14.8848 -16.3611)" fill="#fff"/><path d="M394.5742,117.6067c-1.8818-4.7651-3.2588-7.52-5.3926-9.9043h11.0352c-1.2539,2.0044-1.5039,4.89-.2519,8.2735L411,144.1922c2.6338-5.2681,5.14-10.7857,7.5225-16.1758,2.6357-6.0186,4.64-11.5376,4.64-14.9214a8.4382,8.4382,0,0,0-1.7549-5.3926h10.4053c-4.6387,5.8936-6.0176,10.5318-31.7207,63.8228h-6.1445a110.898,110.898,0,0,0,13.791-20.688Z" transform="translate(-14.8848 -16.3611)" fill="#fff"/><path d="M455.7617,115.9759c-1.88-5.0147-5.3906-7.27-9.6543-7.27a7.1083,7.1083,0,0,0-7.2734,6.896c0,11.6622,22.9482,7.146,22.9482,22.9463,0,7.6509-6.2715,12.5386-14.7959,12.5386-6.6464,0-12.166-4.1377-14.17-7.5234l5.3926-4.3882c.625,6.27,4.3887,9.5293,9.7793,9.5293,5.0156,0,9.0293-3.3862,9.0293-8.15,0-12.6651-21.8184-7.021-21.8184-22.9478,0-5.3906,4.89-11.4087,13.0391-11.4087a16.2815,16.2815,0,0,1,12.665,6.1446Z" transform="translate(-14.8848 -16.3611)" fill="#fff"/><path d="M29.8789,54.8465a3.8827,3.8827,0,0,0,1.4561,3.581H25.5088c1.3955-1.1538,1.4551-2.0659,1.4551-3.581V19.0916c-6.6748.1831-8.0713.6074-11.5332,1.7017l-.5459-.7891a53.2927,53.2927,0,0,0,4.8564-3.522c1.2139.8486,1.8809,1.4551,6.1914,1.4551h4.7949c2.7334,0,7.77-.1187,11.3506-1.5762l.4864.8506a28.6748,28.6748,0,0,0-4.6739,3.459c-.8486-.7285-1.5166-1.5791-4.43-1.5791h-3.582Z" transform="translate(-14.8848 -16.3611)" fill="#fff"/><path d="M46.63,41.0047a9.3707,9.3707,0,0,1,6.7383-3.3989c3.9453,0,6.7988,2.0029,6.7988,6.3139V54.1766a6.1083,6.1083,0,0,0,1.2148,4.2509h-5.1c1.0322-1.2148,1.2148-2.4292,1.2148-4.2509V44.4671c0-2.3677-.8486-5.2212-4.7949-5.2212A8.6518,8.6518,0,0,0,46.63,42.1585V54.1766a5.855,5.855,0,0,0,1.2754,4.2509H42.7461c1.03-1.2148,1.2129-2.4292,1.2129-4.2509V22.491a3.3815,3.3815,0,0,0-1.3965-3.2163l2.7334-1.7617a5.5609,5.5609,0,0,1,1.334,3.9463Z" transform="translate(-14.8848 -16.3611)" fill="#fff"/><path d="M81.8359,53.0262c-1.3349,3.7-3.9462,6.1909-8.0127,6.1909-5.0361,0-9.165-3.9463-9.165-11.0493,0-4.4307,3.2764-10.6831,8.9834-10.6831a8.0242,8.0242,0,0,1,8.0117,7.3432H67.45C66.6611,51.5662,68.9063,57.94,74.7959,57.94c4.126,0,5.4609-3.52,6.251-5.16ZM78.56,43.7972c.0586-1.3965-1.459-5.16-5.2822-5.16-3.34,0-5.2793,2.915-5.6446,5.16Z" transform="translate(-14.8848 -16.3611)" fill="#fff"/><path d="M96.71,240.0828c0,3.167.1269,5.0664,3.04,7.4717H87.5908c2.7871-2.4053,3.04-4.3047,3.04-7.4717V170.5506c0-3.0391-.253-5.0635-3.04-7.4717H99.75c-2.9131,2.4082-3.04,4.4326-3.04,7.4717V198.159l29.0058-27.8623c3.0371-2.9151,4.05-5.1924,2.6582-7.2178h9.3721a93.466,93.466,0,0,0-7.4746,6.585l-28.3682,27.2294,25.9639,39.8936c2.0273,3.043,5.3184,8.3623,10.1318,10.7676H123.0527c1.52-1.14,3.293-2.0264-.7587-8.2354L96.71,199.6814Z" transform="translate(-14.8848 -16.3611)" fill="#fff"/><path d="M174.9785,236.281c-2.7861,7.7247-8.2324,12.9229-16.7187,12.9229-10.5137,0-19.126-8.2354-19.126-23.0527,0-9.2481,6.8408-22.2891,18.7471-22.2891,11.3965,0,16.7158,10.1289,16.7158,15.3242H144.9629c-1.6494,14.0567,3.0371,27.3516,15.3232,27.3516,8.61,0,11.3985-7.3418,13.045-10.7627Zm-6.84-19.247c.125-2.9151-3.0391-10.77-11.0215-10.77-6.9629,0-11.0156,6.083-11.7754,10.77Z" transform="translate(-14.8848 -16.3611)" fill="#fff"/><path d="M258.9941,251.2283l-31.663-75.74c-2.0245-4.8115-4.3057-9.75-7.5977-12.4092h12.2852c-2.1514,1.9014-.8858,5.6992.8857,9.749l27.8633,67.002,8.3613-19.125L250.51,175.366c-2.0274-4.8154-4.3067-8.9932-7.7246-12.2871h12.41c-2.28,2.2812-1.0117,5.8252.6348,9.8779l16.5908,40.1475,14.9463-34.5723c3.5439-7.9814,4.1787-11.2734,2.2773-15.4531h9.6241c-3.1641,2.1533-5.8243,9.3711-7.4717,13.0449L273.94,217.034l9.3721,22.7959,26.5957-61.2979c3.8018-8.7412,3.4219-11.15,1.6475-15.4531h10.2588c-2.7871,2.4082-5.8262,8.8643-7.3457,12.5371l-32.9307,75.3594-10.8906-26.47Z" transform="translate(-14.8848 -16.3611)" fill="#fff"/><path d="M340.2949,236.281c-2.7881,7.7247-8.2343,12.9229-16.7187,12.9229-10.5137,0-19.125-8.2354-19.125-23.0527,0-9.2481,6.8379-22.2891,18.7441-22.2891,11.3985,0,16.7168,10.1289,16.7168,15.3242H310.2774c-1.6475,14.0567,3.04,27.3516,15.3242,27.3516,8.6123,0,11.3984-7.3418,13.0439-10.7627Zm-6.8427-19.247c.1279-2.9151-3.0381-10.77-11.0186-10.77-6.9648,0-11.0176,6.083-11.7773,10.77Z" transform="translate(-14.8848 -16.3611)" fill="#fff"/><path d="M368.1992,213.7391c-1.8984-5.0674-5.4433-7.3467-9.7519-7.3467a7.1779,7.1779,0,0,0-7.3448,6.9668c0,11.7793,23.1788,7.2187,23.1788,23.18,0,7.7236-6.3321,12.665-14.9473,12.665-6.7109,0-12.2832-4.1816-14.3106-7.6025l5.4463-4.4346c.6328,6.333,4.4346,9.6279,9.878,9.6279,5.0673,0,9.12-3.4219,9.12-8.2314,0-12.795-22.0381-7.0928-22.0381-23.1787,0-5.4463,4.9385-11.5225,13.1719-11.5225a16.4548,16.4548,0,0,1,12.791,6.2031Z" transform="translate(-14.8848 -16.3611)" fill="#fff"/><path d="M379.7686,207.281c4.4345-3.9267,8.4843-10.1308,10.8935-15.0722v13.1679H402.06l.38,2.03a17.3893,17.3893,0,0,0-6.2061,3.166c-.6357-1.6435-3.167-3.04-5.5713-3.04v27.3555c0,5.3173,1.1387,8.2324,5.8242,8.2324a12.702,12.702,0,0,0,5.0645-1.1358l1.3945,1.3877-6.2031,5.0674a9.8705,9.8705,0,0,1-11.6533-9.8769V207.281Z" transform="translate(-14.8848 -16.3611)" fill="#fff"/><path d="M44.7266,247.7547c-13.6621.1719-18.6133-9.8174-18.6133-17.0762,0-4.6943,2.5615-13.4883,14.3447-17.5039-5.4648-6.7432-6.1474-9.2217-6.1474-11.9521a13.0428,13.0428,0,0,1,13.4882-12.211c5.98,0,14.0039,3.585,14.0039,11.1s-6.3154,10.2481-15.625,12.7237l17.6748,21.4287c4.4405-8.793,2.9043-14.43-.4267-16.4785H74.2686c-6.4034,3.0722-4.9512,9.9033-9.3926,17.6738,3.5869,4.8691,9.3926,9.82,12.8086,11.5293H63.51c3.0742-2.39.8564-4.8692-1.3643-7.3448A21.9382,21.9382,0,0,1,44.7266,247.7547Zm-3.2442-33.3828c-7.8564,2.7324-11.6123,8.28-11.6123,14.9394,0,6.0615,5.3789,15.8828,18.1875,15.711a16.1777,16.1777,0,0,0,13.1475-6.5743ZM57.875,199.4285c0-4.4394-5.0371-8.793-10.9287-8.793-4.9512,0-8.8789,3.584-8.8789,8.1094,0,4.3545,3.499,8.4531,7.0869,12.81C53.9482,208.8211,57.875,205.9178,57.875,199.4285Z" transform="translate(-14.8848 -16.3611)" fill="#fff"/><path d="M181.5151,284.4881a5.3573,5.3573,0,1,1-2.77-7.0518A5.3942,5.3942,0,0,1,181.5151,284.4881Z" transform="translate(-14.8848 -16.3611)" fill="#fff"/><path d="M156.38,291.4715a4.9715,4.9715,0,0,1,7.5644,6.4531,4.9715,4.9715,0,0,1-7.5644-6.4531Z" transform="translate(-14.8848 -16.3611)" fill="#fff"/><path d="M138.8633,297.9617a4.2451,4.2451,0,0,1,6.4736,5.4932,4.2451,4.2451,0,1,1-6.4736-5.4932Z" transform="translate(-14.8848 -16.3611)" fill="#fff"/><path d="M121.8018,295.2351a3.5274,3.5274,0,1,1,5.3759,4.5684,3.5274,3.5274,0,0,1-5.3759-4.5684Z" transform="translate(-14.8848 -16.3611)" fill="#fff"/><path d="M109.0762,284.2527a2.8764,2.8764,0,1,1,4.3818,3.7276,2.9012,2.9012,0,0,1-4.0537.3164A2.8537,2.8537,0,0,1,109.0762,284.2527Z" transform="translate(-14.8848 -16.3611)" fill="#fff"/><path d="M212.3315,276.3943c0-5.7754,3.8458-10.01,9.209-10.01a7.5463,7.5463,0,0,1,5.92,3.1347l-1.771,2.1446a6.02,6.02,0,0,0-5.3129-4.18c-3.9468,0-6.0215,3.3554-6.0215,7.59,0,6.0508,3.5927,9.625,6.9829,9.625a6.61,6.61,0,0,0,5.7681-4.18l.7084.2754c-.86,2.1992-3.3393,5.2246-7.0332,5.2246C215.9746,286.0193,212.3315,282.3338,212.3315,276.3943Z" transform="translate(-14.8848 -16.3611)" fill="#fff"/><path d="M247.8018,276.2293c0,5.8848-4.3008,9.7353-9.209,9.7353-5.6675,0-9.1587-4.6211-9.1587-9.7353,0-5.94,4.3008-9.7354,9.1587-9.7354C244.3106,266.4939,247.8018,271.0584,247.8018,276.2293ZM231.66,275.1834c0,6.876,4.4531,9.6807,7.4892,9.6807,3.44,0,6.4258-2.42,6.4258-7.59,0-6.9307-4.4526-9.625-7.4888-9.625C234.646,267.6492,231.66,270.0135,231.66,275.1834Z" transform="translate(-14.8848 -16.3611)" fill="#fff"/><path d="M269.3066,266.4939c2.834,0,5.3633,1.7051,5.3633,5.7207v9.295a5.621,5.621,0,0,0,1.0625,3.85h-4.3008a5.61,5.61,0,0,0,1.0625-3.85l-.0507-8.36c0-2.4756-.4043-5.17-3.795-5.17a5.7786,5.7786,0,0,0-4.6035,2.0342,14.9106,14.9106,0,0,1,.2022,2.916v8.58a5.8758,5.8758,0,0,0,1.0117,3.85h-4.251a5.5939,5.5939,0,0,0,1.0127-3.85v-8.36c0-2.8057-.4053-5.17-3.7949-5.17-2.0244,0-3.44,1.4853-4.5029,2.64V281.51a5.61,5.61,0,0,0,1.0625,3.85h-4.3018a5.5986,5.5986,0,0,0,1.0127-3.85V271.2244a3.43,3.43,0,0,0-1.1641-3.08l2.2774-1.54a5.345,5.345,0,0,1,1.0625,2.97,7.7969,7.7969,0,0,1,5.667-3.08c2.0742,0,3.7949.8252,4.4013,2.4746A7.4167,7.4167,0,0,1,269.3066,266.4939Z" transform="translate(-14.8848 -16.3611)" fill="#fff"/><path d="M292.7344,280.4646c-1.1133,3.3545-3.2891,5.6094-6.68,5.6094-4.1992,0-7.6406-3.5742-7.6406-10.01,0-4.0156,2.7324-9.68,7.4892-9.68,4.5537,0,6.6787,4.3994,6.6787,6.6543h-11.84c-.6582,6.1054,1.2148,11.8808,6.123,11.8808,3.44,0,4.5528-3.19,5.211-4.6758Zm-2.7324-8.36c.0507-1.2647-1.2149-4.6748-4.4024-4.6748-2.7832,0-4.4023,2.64-4.7051,4.6748Z" transform="translate(-14.8848 -16.3611)" fill="#fff"/><path d="M316.2109,266.4392c3.9473,0,5.1622,2.3106,5.1622,4.84v10.1758a5.2691,5.2691,0,0,0,1.0625,3.9043h-3.2891v-2.09c-1.7715,1.54-3.34,2.6953-5.8193,2.6953a7.2441,7.2441,0,0,1-7.4385-7.4257,7.3714,7.3714,0,0,1,7.3887-7.3145,7.6439,7.6439,0,0,1,5.8691,2.6953v-2.916c0-2.4746-2.6309-3.1895-6.376-2.584ZM313.58,272.324c-2.6309,0-5.3633,2.0352-5.3633,5.9951,0,3.8506,2.7832,6.4346,5.5156,6.4346,1.9219,0,3.541-.8789,5.4141-2.8047V275.68C317.9316,274.0291,316.2109,272.324,313.58,272.324Z" transform="translate(-14.8848 -16.3611)" fill="#fff"/><path d="M333.7188,270.6736c-.7579-2.1992-2.1758-3.1894-3.8956-3.1894a2.9974,2.9974,0,0,0-2.9345,3.0254c0,5.1152,9.26,3.1347,9.26,10.0644,0,3.3555-2.53,5.5-5.9707,5.5a6.9,6.9,0,0,1-5.7187-3.3l2.1758-1.9248c.2539,2.75,1.7715,4.18,3.9472,4.18a3.53,3.53,0,0,0,3.6426-3.5742c0-5.5557-8.8037-3.08-8.8037-10.0664a5.1441,5.1441,0,0,1,5.2627-5.0039,6.3961,6.3961,0,0,1,5.11,2.6943Z" transform="translate(-14.8848 -16.3611)" fill="#fff"/><path d="M350.5674,271.3885a13.9218,13.9218,0,0,0-2.1758-4.3438h4.4522a4.41,4.41,0,0,0-.1006,3.6289l4.4521,12.375c1.0635-2.31,2.0752-4.73,3.0371-7.0947,1.0625-2.64,1.8711-5.06,1.8711-6.5449a3.9136,3.9136,0,0,0-.707-2.3643h4.1992c-1.8721,2.584-2.4287,4.6192-12.8017,27.9942h-2.4795a49.164,49.164,0,0,0,5.5664-9.0743Z" transform="translate(-14.8848 -16.3611)" fill="#fff"/><path d="M384.57,276.2293c0,5.8848-4.3008,9.7353-9.209,9.7353-5.6679,0-9.1591-4.6211-9.1591-9.7353,0-5.94,4.3007-9.7354,9.1591-9.7354C381.0781,266.4939,384.57,271.0584,384.57,276.2293Zm-16.1416-1.0459c0,6.876,4.4522,9.6807,7.4893,9.6807,3.4394,0,6.4258-2.42,6.4258-7.59,0-6.9307-4.4532-9.625-7.4893-9.625C371.4141,267.6492,368.4287,270.0135,368.4287,275.1834Z" transform="translate(-14.8848 -16.3611)" fill="#fff"/><path d="M393.4248,285.9646c-3.44,0-5.2627-1.8711-5.2627-5.2255v-9.5147a3.4282,3.4282,0,0,0-1.164-3.08l2.2773-1.54a5.3093,5.3093,0,0,1,1.1133,3.5752v10.7246a3.3219,3.3219,0,0,0,3.4414,3.41,6.5518,6.5518,0,0,0,4.8574-2.42v-10.67a3.43,3.43,0,0,0-1.1641-3.08l2.2774-1.54a5.3145,5.3145,0,0,1,1.1133,3.5752v11.33a5.8758,5.8758,0,0,0,1.0117,3.85h-3.2383v-2.1446A7.5344,7.5344,0,0,1,393.4248,285.9646Z" transform="translate(-14.8848 -16.3611)" fill="#fff"/><path d="M426.1113,266.4392c3.9473,0,5.1612,2.3106,5.1612,4.84v10.1758a5.2735,5.2735,0,0,0,1.0625,3.9043h-3.2881v-2.09c-1.7715,1.54-3.34,2.6953-5.82,2.6953a7.2439,7.2439,0,0,1-7.4375-7.4257,7.3712,7.3712,0,0,1,7.3877-7.3145,7.6444,7.6444,0,0,1,5.87,2.6953v-2.916c0-2.4746-2.6319-3.1895-6.377-2.584Zm-2.6308,5.8848c-2.6309,0-5.3633,2.0352-5.3633,5.9951,0,3.8506,2.7822,6.4346,5.5146,6.4346,1.9229,0,3.542-.8789,5.4151-2.8047V275.68C427.832,274.0291,426.1113,272.324,423.4805,272.324Z" transform="translate(-14.8848 -16.3611)" fill="#fff"/><path d="M444.3789,267.76l-1.9238,1.705c-1.0117-1.65-2.2774-1.65-3.6934-.166,0,.166.0508.33.0508.5508v11.66a5.5988,5.5988,0,0,0,1.0117,3.85h-4.3008a5.6205,5.6205,0,0,0,1.0625-3.85V271.4441a4.1415,4.1415,0,0,0-1.2148-3.3l2.2773-1.54a3.66,3.66,0,0,1,.91,1.6494C440.33,266.5486,442.4551,265.284,444.3789,267.76Z" transform="translate(-14.8848 -16.3611)" fill="#fff"/><path d="M458.6973,280.4646c-1.1133,3.3545-3.2891,5.6094-6.68,5.6094-4.1992,0-7.6406-3.5742-7.6406-10.01,0-4.0156,2.7324-9.68,7.4882-9.68,4.5547,0,6.68,4.3994,6.68,6.6543h-11.84c-.6582,6.1054,1.2139,11.8808,6.1221,11.8808,3.44,0,4.5537-3.19,5.2119-4.6758Zm-2.7324-8.36c.05-1.2647-1.2149-4.6748-4.4024-4.6748-2.7832,0-4.4023,2.64-4.706,4.6748Z" transform="translate(-14.8848 -16.3611)" fill="#fff"/><path d="M473.4746,256.4186a6.733,6.733,0,0,0-3.625-3.5625,6.94,6.94,0,0,0-5.2637,0,6.8728,6.8728,0,0,0-2.1757,1.4209,6.7478,6.7478,0,0,0-1.4766,2.1416,6.5123,6.5123,0,0,0-.5449,2.6651,6.6722,6.6722,0,0,0,.5449,2.711,6.8228,6.8228,0,0,0,1.4766,2.1592,6.6461,6.6461,0,0,0,2.1757,1.4219,7.0612,7.0612,0,0,0,5.2637,0,6.5625,6.5625,0,0,0,2.1563-1.4219,6.8993,6.8993,0,0,0,1.4687-2.1592,6.6713,6.6713,0,0,0,.543-2.711A6.5111,6.5111,0,0,0,473.4746,256.4186Zm-1.1113,4.9747a5.613,5.613,0,0,1-1.18,1.8428,5.433,5.433,0,0,1-3.9609,1.669,5.55,5.55,0,0,1-2.2246-.4444,5.4891,5.4891,0,0,1-1.7754-1.2246,5.6438,5.6438,0,0,1-1.18-1.8428,6.1639,6.1639,0,0,1-.4278-2.3134,6,6,0,0,1,.4278-2.2666,5.5083,5.5083,0,0,1,5.18-3.4844,5.4691,5.4691,0,0,1,2.1953.4443,5.5175,5.5175,0,0,1,2.9453,3.04,5.9636,5.9636,0,0,1,.4277,2.2666A6.1267,6.1267,0,0,1,472.3633,261.3933Z" transform="translate(-14.8848 -16.3611)" fill="#fff"/><path d="M468.3262,259.5594a2.6951,2.6951,0,0,0,1.4844-.585,1.919,1.919,0,0,0,.5976-1.5615,2.0663,2.0663,0,0,0-.6816-1.6963,3.2508,3.2508,0,0,0-2.09-.5586h-3.0586v7.9033h1.2266v-3.4062h1.3047l2.16,3.4062h1.3223Zm-1.2324-.8965h-1.2891V256.15h1.6328a4.3788,4.3788,0,0,1,.625.0459,1.7533,1.7533,0,0,1,.5645.17,1.06,1.06,0,0,1,.3984.3633,1.1252,1.1252,0,0,1,.1543.6308,1.3242,1.3242,0,0,1-.1719.7334,1.0326,1.0326,0,0,1-.4629.3887,2.0066,2.0066,0,0,1-.6621.1533C467.6367,258.6541,467.3711,258.6629,467.0938,258.6629Z" transform="translate(-14.8848 -16.3611)" fill="#fff"/></svg>