
<svg version="1.1" id="Layer_1" xmlns="http://www.w3.org/2000/svg" xmlns:xlink="http://www.w3.org/1999/xlink" x="0px" y="0px"
	 viewBox="0 0 195.1 27.5"  width="578" height="243.44" style="enable-background:new 0 0 195.1 27.5;" xml:space="preserve">
<style type="text/css">
	.st0{fill:#fff;}
</style>
<g>
	<polygon class="st0" points="0.6,26.9 2.6,26.9 2.6,21.8 9.7,21.8 9.7,19.8 2.6,19.8 2.6,14.5 10.7,14.5 10.7,12.4 0.6,12.4 	"/>
	<path class="st0" d="M19.4,12.4c-4.2,0-7.6,3.3-7.6,7.3s3.4,7.3,7.6,7.3s7.6-3.3,7.6-7.3S23.5,12.4,19.4,12.4z M19.4,25
		c-3,0-5.5-2.4-5.5-5.2c0-2.9,2.5-5.3,5.5-5.3s5.5,2.4,5.5,5.3C24.8,22.6,22.4,25,19.4,25z"/>
	<path class="st0" d="M40.3,17.3c0-1.1-0.4-4.9-5.3-4.9h-5.7v14.5h2.1v-4.5h3.2c0.3,0,0.6,0,0.8,0l3.3,4.5V27h2.6l-3.8-5.1
		C39.4,21.1,40.3,19.5,40.3,17.3z M38.2,17.3c0,2-1.2,3.1-3.6,3.1h-3.2v-5.9H35C37.7,14.5,38.2,16,38.2,17.3z"/>
	<polygon class="st0" points="42,14.5 46.8,14.5 46.8,26.9 48.9,26.9 48.9,14.5 53.7,14.5 53.7,12.4 42,12.4 	"/>
	<polygon class="st0" points="65,12.4 62.9,12.4 62.9,26.9 72.7,26.9 72.7,24.9 65,24.9 	"/>
	<path class="st0" d="M82.1,12.4h-1.4l-6.5,14.5h2.3l1.7-3.8h6.6l1.7,3.8h2.2L82.1,12.4L82.1,12.4z M83.8,21.2h-4.9l2.4-5.5
		L83.8,21.2z"/>
	<path class="st0" d="M99.3,24.4c-0.8,0.6-2.2,0.8-3.1,0.8c-2.8,0-4-1.1-4-3.7v-9h-2v9.2c0,3.4,2.1,5.4,5.6,5.4
		c2.4,0,4.4-0.6,5.4-1.8l0.2-0.2V12.4h-2L99.3,24.4L99.3,24.4z"/>
	<path class="st0" d="M109.3,12.4h-4.7v14.5h0.5h4.8c3.8-0.2,6.8-3.4,6.8-7.2C116.6,15.7,113.3,12.4,109.3,12.4z M106.6,14.5h2.7
		c2.9,0,5.2,2.3,5.2,5.2c0,2.7-2.1,5-4.9,5.2h-3C106.6,24.9,106.6,14.5,106.6,14.5z"/>
	<polygon class="st0" points="121,20.9 127.8,20.9 127.8,18.9 121,18.9 121,14.5 129,14.5 129,12.4 119,12.4 119,26.9 129.4,26.9
		129.4,24.9 121,24.9 	"/>
	<path class="st0" d="M142.7,17.3c0-1.1-0.4-4.9-5.3-4.9h-5.7v14.5h2.1v-4.5h3.2c0.3,0,0.6,0,0.8,0l3.3,4.5V27h2.6l-3.8-5.1
		C141.8,21.1,142.7,19.5,142.7,17.3z M140.6,17.3c0,2-1.2,3.1-3.6,3.1h-3.2v-5.9h3.6C140,14.5,140.6,16,140.6,17.3z"/>
	<path class="st0" d="M149.8,12.4h-4.7v14.5h0.5h4.8c3.8-0.2,6.8-3.4,6.8-7.2C157.1,15.7,153.9,12.4,149.8,12.4z M155,19.7
		c0,2.7-2.1,5-4.9,5.2h-3V14.5h2.7C152.7,14.5,155,16.8,155,19.7z"/>
	<path class="st0" d="M164.9,12.4h-1.4L157,26.9h2.3l1.7-3.8h6.6l1.7,3.8h2.2L164.9,12.4L164.9,12.4z M166.6,21.2h-4.9l2.4-5.5
		L166.6,21.2z"/>
	<polygon class="st0" points="174.9,12.4 172.8,12.4 172.8,26.9 182.6,26.9 182.6,24.9 174.9,24.9 	"/>
	<polygon class="st0" points="186.8,24.9 186.8,20.9 193.6,20.9 193.6,18.9 186.8,18.9 186.8,14.5 194.7,14.5 194.7,12.4
		184.7,12.4 184.7,26.9 195.1,26.9 195.1,24.9 	"/>
</g>
<g>
	<path class="st0" d="M3.8,5.5h3v1C6.1,7,5.4,7.2,4.5,7.2c-1.7,0-3-1.3-3-2.9s1.3-2.8,3-2.8c0.9,0,1.7,0.3,2.3,0.8l0.4,0.4l1-1.1
		L7.8,1.2C7,0.4,5.8,0,4.5,0C2,0,0,1.9,0,4.3s2,4.3,4.5,4.3c1.3,0,2.6-0.4,3.6-1.2l0.2-0.2V4.1H3.8V5.5z"/>
	<path class="st0" d="M15.8,3c0-1.8-1.2-2.9-3.2-2.9H9.2v8.6h1.5V6.1h1.7c0.1,0,0.3,0,0.4,0l1.9,2.6h1.9l-2.2-3
		C15.3,5.2,15.8,4.2,15.8,3z M14.3,3c0,1.1-0.6,1.6-1.9,1.6h-1.7V1.5h1.9C13.8,1.5,14.3,2,14.3,3z"/>
	<polygon class="st0" points="18.8,5.2 22.6,5.2 22.6,3.7 18.8,3.7 18.8,1.5 23.3,1.5 23.3,0 17.3,0 17.3,8.6 23.5,8.6 23.5,7.2
		18.8,7.2 	"/>
	<path class="st0" d="M29.1,0h-1l-3.9,8.6h1.6l1-2.2h3.6l1,2.2H33l-3.8-8.5L29.1,0z M29.7,5h-2.3l1.1-2.6L29.7,5z"/>
	<polygon class="st0" points="31.8,1.5 34.5,1.5 34.5,8.6 36,8.6 36,1.5 38.8,1.5 38.8,0 31.8,0 	"/>
	<polygon class="st0" points="41,5.2 44.9,5.2 44.9,3.7 41,3.7 41,1.5 45.6,1.5 45.6,0 39.5,0 39.5,8.6 45.8,8.6 45.8,7.2 41,7.2
		"/>
	<path class="st0" d="M51.7,5.6c1-0.5,1.5-1.4,1.5-2.7C53.2,1.1,52,0,50.1,0h-3.4v8.6h1.5V6.1h1.7c0.1,0,0.3,0,0.4,0l1.9,2.6H54
		L51.7,5.6z M51.7,3c0,1.1-0.6,1.6-1.9,1.6h-1.7V1.5H50C51.2,1.5,51.7,2,51.7,3z"/>
</g>
</svg>
