<svg id="Layer_1" data-name="Layer 1" xmlns="http://www.w3.org/2000/svg" viewBox="0 0 266.8525 194.1513"><title>naples</title><path d="M88.3442,80.4278V79.835H95.19v.5928q-2.9487.17-2.9482,3.3213v16.6221h-.665L76.9751,83.9161V96.3248a3.3909,3.3909,0,0,0,.5928,2.2768,4.1777,4.1777,0,0,0,2.3886.939v.5933h-6.998v-.5933a3.1547,3.1547,0,0,0,2.042-.9741A3.6673,3.6673,0,0,0,75.62,96.22V82.4444a18.4869,18.4869,0,0,0-1.6357-1.5591,2.5349,2.5349,0,0,0-1.0586-.4575V79.835h6.0986L90.8862,93.441V84.3082a5.2441,5.2441,0,0,0-.53-2.7876A3.145,3.145,0,0,0,88.3442,80.4278Z" transform="translate(-1.3442 -4.5788)" fill="#fff"/><path d="M109.4878,100.1339v-.5933a5.0176,5.0176,0,0,0,1.7637-.5845,1.11,1.11,0,0,0,.5146-.9741,5.0584,5.0584,0,0,0-.3906-1.5591l-1.1738-3.1176h-7.2442l-1.0029,2.6933a5.0714,5.0714,0,0,0-.3838,1.66q0,1.34,2.0371,1.8818v.5933H97.05v-.5933a3.4419,3.4419,0,0,0,2.0674-1.2368,11.5729,11.5729,0,0,0,1.7461-3.3716L106.7017,79.31h2.7724l6.1729,16.2491a9.67,9.67,0,0,0,1.6631,3.0244,3.1535,3.1535,0,0,0,2.123.9575v.5933Zm-5.88-8.2857h6.0469l-3.09-8.2348Z" transform="translate(-1.3442 -4.5788)" fill="#fff"/><path d="M123.1118,79.835h10.4209a7.8857,7.8857,0,0,1,5.0752,1.4908,4.7469,4.7469,0,0,1,1.8555,3.88,5.16,5.16,0,0,1-2.06,4.2193,8.8489,8.8489,0,0,1-5.667,1.6435,20.2873,20.2873,0,0,1-2.5762-.1694v5.7949a2.9181,2.9181,0,0,0,.5508,1.9824,3.4672,3.4672,0,0,0,1.9912.8638v.5933h-9.5908v-.5933a3.5855,3.5855,0,0,0,2.06-.9233,3.4333,3.4333,0,0,0,.5166-2.16V83.2066a2.8308,2.8308,0,0,0-.4912-1.9145,4.1828,4.1828,0,0,0-2.085-.8643Zm8.7608,1.1519h-1.712v8.7095a5.1172,5.1172,0,0,0,1.4913.2373,3.6814,3.6814,0,0,0,2.915-1.1949,4.9,4.9,0,0,0,1.05-3.3461,4.7612,4.7612,0,0,0-1.0332-3.1856A3.3815,3.3815,0,0,0,131.8726,80.9869Z" transform="translate(-1.3442 -4.5788)" fill="#fff"/><path d="M152.7837,79.835v.5928a4.4488,4.4488,0,0,0-2.1006.9321,2.6107,2.6107,0,0,0-.4746,1.7622V96.796a1.9529,1.9529,0,0,0,.6689,1.728,4.8649,4.8649,0,0,0,2.5332.4575,4.7526,4.7526,0,0,0,3.0254-.8554,9.6219,9.6219,0,0,0,2.2452-3.2618h.5927l-.5927,5.27H143.1938v-.5933a4.0967,4.0967,0,0,0,2.0782-.9658,3.9419,3.9419,0,0,0,.4638-2.3213V83.2745a2.8833,2.8833,0,0,0-.497-1.9233,4.15,4.15,0,0,0-2.045-.9234V79.835Z" transform="translate(-1.3442 -4.5788)" fill="#fff"/><path d="M176.1724,86.8326h.6611v6.2866h-.6611a2.6122,2.6122,0,0,0-2.8125-2.5928h-3.5752v5.9644a2.497,2.497,0,0,0,.625,1.9316,3.2231,3.2231,0,0,0,2.1474.5591h1.1836q2.9766,0,4.2617-3.7783h.5928l-.373,4.9307H162.77v-.5933a3.65,3.65,0,0,0,2.0362-.9233,3.81,3.81,0,0,0,.5048-2.33V83.2408a2.8765,2.8765,0,0,0-.5214-1.9741,3.8319,3.8319,0,0,0-2.02-.8389V79.835h15.2149v4.5069h-.5928a5.5393,5.5393,0,0,0-1.2617-2.6685,3.5244,3.5244,0,0,0-2.4151-.6865h-3.9306v8.3877H173.36a2.6925,2.6925,0,0,0,1.8632-.58A3.647,3.647,0,0,0,176.1724,86.8326Z" transform="translate(-1.3442 -4.5788)" fill="#fff"/><path d="M195.0581,79.31v5.3541h-.5928a6.5187,6.5187,0,0,0-2.0371-2.99,4.6156,4.6156,0,0,0-2.9853-1.2114,3.599,3.599,0,0,0-2.3584.7959,2.4321,2.4321,0,0,0-.9727,1.9487,2.632,2.632,0,0,0,.2539,1.11,3.4941,3.4941,0,0,0,.7373,1.0254,26.1476,26.1476,0,0,0,3.1123,2.1123,36.6084,36.6084,0,0,1,3.459,2.2827,8.5336,8.5336,0,0,1,1.4883,1.645,5.7605,5.7605,0,0,1,1.082,3.375,5.3252,5.3252,0,0,1-1.9062,4.3081,6.959,6.959,0,0,1-4.6172,1.5943,14.1017,14.1017,0,0,1-3.4736-.5254,7.2215,7.2215,0,0,0-1.4913-.271,1.0759,1.0759,0,0,0-1.0332.6606h-.5937V94.4068h.5937a6.7342,6.7342,0,0,0,1.8975,3.7363,4.955,4.955,0,0,0,3.541,1.3638,4.2786,4.2786,0,0,0,2.6856-.8135,2.5008,2.5008,0,0,0,1.06-2.0669,3.1628,3.1628,0,0,0-.6777-1.9233,14.4237,14.4237,0,0,0-3.63-2.6621,20.6405,20.6405,0,0,1-3.5937-2.5029,5.9644,5.9644,0,0,1-1.7744-4.2915,5.5819,5.5819,0,0,1,1.7851-4.2749A6.4745,6.4745,0,0,1,189.61,79.31a9.287,9.287,0,0,1,2.081.2881,9.2536,9.2536,0,0,0,1.7256.271,1.5618,1.5618,0,0,0,1.0488-.5591Z" transform="translate(-1.3442 -4.5788)" fill="#fff"/><path d="M28.895,114.5367v.5928a3.2873,3.2873,0,0,0-1.7959.7881,2.21,2.21,0,0,0-.5586,1.6191,5.4946,5.4946,0,0,0,.06.88l1.8359,12.6748a3.708,3.708,0,0,0,.9414,2.1348,4.0132,4.0132,0,0,0,2.1612,1.0166v.5927H21.5073v-.5927a3.2669,3.2669,0,0,0,1.7969-1,3.0558,3.0558,0,0,0,.542-1.9483,11.9553,11.9553,0,0,0-.1191-1.5254l-1.66-11.59-6.6807,16.6562h-.7236L8.0708,118.1793,6.3091,130.108a9.25,9.25,0,0,0-.1016,1.2881q0,2.66,2.49,2.8467v.5927H1.3442v-.5927a3.1073,3.1073,0,0,0,2.4229-1.0762,7.3532,7.3532,0,0,0,1.1846-3.3975l2.0039-13.2519A4.1816,4.1816,0,0,0,4.0044,115.13v-.5928h7.3447l5.2959,13.3848,5.3682-13.3848Z" transform="translate(-1.3442 -4.5788)" fill="#fff"/><path d="M47.45,134.8355v-.5927a5.0409,5.0409,0,0,0,1.7637-.585,1.11,1.11,0,0,0,.5146-.9746,5.0594,5.0594,0,0,0-.3906-1.5586l-1.1738-3.1172H40.9194L39.9165,130.7a5.0763,5.0763,0,0,0-.3838,1.66q0,1.34,2.0371,1.8829v.5927H35.0122v-.5927a3.4448,3.4448,0,0,0,2.0674-1.2374,11.556,11.556,0,0,0,1.7461-3.372l5.8379-15.6221H47.436l6.1729,16.249a9.6641,9.6641,0,0,0,1.6631,3.0244,3.1563,3.1563,0,0,0,2.123.9581v.5927Zm-5.88-8.2861h6.0469l-3.09-8.2344Z" transform="translate(-1.3442 -4.5788)" fill="#fff"/><path d="M61.0288,134.8355v-.5927q2.5752-.2037,2.5762-2.5928V117.9088a2.77,2.77,0,0,0-.5342-1.9493,3.98,3.98,0,0,0-2.042-.83v-.5928H70.687a10.6506,10.6506,0,0,1,5.8379,1.3379,4.2524,4.2524,0,0,1,2.041,3.7617,4.4848,4.4848,0,0,1-1.0615,2.999,6.0806,6.0806,0,0,1-3.044,1.83v.0684a3.1668,3.1668,0,0,1,1.542,1.1787,27.7974,27.7974,0,0,1,2.4082,3.956,21.6709,21.6709,0,0,0,2.2481,3.625,3.17,3.17,0,0,0,1.9228.9493v.5927H76.728a27.72,27.72,0,0,1-2.9531-4.9336,26.859,26.859,0,0,0-1.8418-3.2675,3.7185,3.7185,0,0,0-1.2539-1.1436,6.6727,6.6727,0,0,0-2.6016-.33v6.2354a2.8833,2.8833,0,0,0,.5928,1.9912,3.2948,3.2948,0,0,0,2.0166.8555v.5927Zm8.4385-19.1465h-1.39v8.3194c.3506.0224.6778.0342.9834.0342A5.0364,5.0364,0,0,0,72.5933,123a4.33,4.33,0,0,0,1.11-3.2949Q73.7036,115.688,69.4673,115.689Z" transform="translate(-1.3442 -4.5788)" fill="#fff"/><path d="M103.1313,121.6187h-.5595a9.0554,9.0554,0,0,0-2.5078-4.7607,6.2152,6.2152,0,0,0-4.4053-1.6943,5.2179,5.2179,0,0,0-4.499,2.3886,11.0264,11.0264,0,0,0-1.669,6.4219q0,4.4912,1.9492,6.9473a6.4777,6.4777,0,0,0,5.3711,2.457,7.5357,7.5357,0,0,0,3.3887-.7627,11.3206,11.3206,0,0,0,3.1348-2.457v1.0674a9.633,9.633,0,0,1-8.2178,4.1347,10.2954,10.2954,0,0,1-7.5742-2.8887,10.0942,10.0942,0,0,1-2.9141-7.498,10.7377,10.7377,0,0,1,10.9629-10.9629,13.1841,13.1841,0,0,1,4.32.8467,5.1979,5.1979,0,0,0,1.4063.373q.7455,0,1.2539-1.0507h.5595Z" transform="translate(-1.3442 -4.5788)" fill="#fff"/><path d="M129.5659,124.7027a10.1673,10.1673,0,0,1-3.1172,7.6592,12.0281,12.0281,0,0,1-15.8935,0,11.0183,11.0183,0,0,1,.0078-15.335,11.9682,11.9682,0,0,1,15.8857,0A10.2209,10.2209,0,0,1,129.5659,124.7027Zm-4.8623.1358q0-4.7271-1.5849-7.2012a5.5378,5.5378,0,0,0-9.2256,0q-1.5762,2.4741-1.5762,7.2353a12.6,12.6,0,0,0,1.5928,6.8789,5.1312,5.1312,0,0,0,4.5752,2.4571,5.22,5.22,0,0,0,4.5752-2.4395A12.3591,12.3591,0,0,0,124.7036,124.8385Z" transform="translate(-1.3442 -4.5788)" fill="#fff"/><path d="M153.3862,114.5367v.5928a3.9845,3.9845,0,0,0-2.0195.9062,3.6651,3.6651,0,0,0-.5225,2.3467v13.0137a2.8811,2.8811,0,0,0,.4883,1.914,4.2423,4.2423,0,0,0,2.0537.9327v.5927h-9.59v-.5927a6.1634,6.1634,0,0,0,1.6182-.5938,1.7712,1.7712,0,0,0,.7451-.8125,5.4933,5.4933,0,0,0,.2119-1.8809V117.9762a2.87,2.87,0,0,0-.5-1.9229,4.2136,4.2136,0,0,0-2.0752-.9238v-.5928Z" transform="translate(-1.3442 -4.5788)" fill="#fff"/><path d="M169.6909,114.0113v5.3545h-.5928a6.5192,6.5192,0,0,0-2.0371-2.9912,4.6147,4.6147,0,0,0-2.9853-1.2109,3.6021,3.6021,0,0,0-2.3584.7958,2.4325,2.4325,0,0,0-.9727,1.9493,2.6345,2.6345,0,0,0,.2539,1.1093,3.4959,3.4959,0,0,0,.7373,1.0254,26.1476,26.1476,0,0,0,3.1123,2.1123,36.6188,36.6188,0,0,1,3.459,2.2823,8.5374,8.5374,0,0,1,1.4883,1.6455,5.7617,5.7617,0,0,1,1.082,3.375,5.323,5.323,0,0,1-1.9062,4.3076,6.9567,6.9567,0,0,1-4.6172,1.5947,14.1256,14.1256,0,0,1-3.4736-.5254,7.2393,7.2393,0,0,0-1.4912-.2715,1.0762,1.0762,0,0,0-1.0332.6612h-.5938V129.108h.5938a6.7331,6.7331,0,0,0,1.8974,3.7363,4.9512,4.9512,0,0,0,3.541,1.3643,4.2817,4.2817,0,0,0,2.6856-.8135,2.5006,2.5006,0,0,0,1.06-2.0674,3.1616,3.1616,0,0,0-.6778-1.9228,14.4237,14.4237,0,0,0-3.63-2.6621,20.6675,20.6675,0,0,1-3.5937-2.503,5.9622,5.9622,0,0,1-1.7744-4.292,5.5815,5.5815,0,0,1,1.7851-4.2744,6.4728,6.4728,0,0,1,4.5938-1.6621,9.258,9.258,0,0,1,2.081.2881,9.2417,9.2417,0,0,0,1.7256.27,1.5587,1.5587,0,0,0,1.0488-.5586Z" transform="translate(-1.3442 -4.5788)" fill="#fff"/><path d="M184.2378,114.5367v.5928a4.4594,4.4594,0,0,0-2.1006.9316,2.614,2.614,0,0,0-.4746,1.7627v13.6738a1.9558,1.9558,0,0,0,.6689,1.7286,4.8721,4.8721,0,0,0,2.5332.457,4.7526,4.7526,0,0,0,3.0254-.8555,9.615,9.615,0,0,0,2.2452-3.2617h.5927l-.5927,5.2695H174.6479v-.5927a4.1083,4.1083,0,0,0,2.0782-.9659,3.9438,3.9438,0,0,0,.4638-2.3213V117.9762a2.8821,2.8821,0,0,0-.497-1.9229,4.15,4.15,0,0,0-2.045-.9238v-.5928Z" transform="translate(-1.3442 -4.5788)" fill="#fff"/><path d="M206.2935,134.8355v-.5927a5.04,5.04,0,0,0,1.7636-.585,1.11,1.11,0,0,0,.5147-.9746,5.0594,5.0594,0,0,0-.3906-1.5586l-1.1739-3.1172h-7.2441L198.76,130.7a5.0763,5.0763,0,0,0-.3838,1.66q0,1.34,2.0371,1.8829v.5927H193.856v-.5927a3.4445,3.4445,0,0,0,2.0673-1.2374,11.5511,11.5511,0,0,0,1.7461-3.372l5.8379-15.6221H206.28l6.1728,16.249a9.6682,9.6682,0,0,0,1.6631,3.0244,3.1567,3.1567,0,0,0,2.1231.9581v.5927Zm-5.88-8.2861H206.46l-3.09-8.2344Z" transform="translate(-1.3442 -4.5788)" fill="#fff"/><path d="M235.02,115.13v-.5928h6.8457v.5928q-2.9487.17-2.9482,3.3213v16.622h-.6651l-14.6015-16.455V131.026a3.39,3.39,0,0,0,.5928,2.2773,4.1809,4.1809,0,0,0,2.3886.9395v.5927h-6.998v-.5927a3.1545,3.1545,0,0,0,2.042-.9747,3.6687,3.6687,0,0,0,.6191-2.3466V117.1461a18.377,18.377,0,0,0-1.6357-1.5586,2.5234,2.5234,0,0,0-1.0586-.458v-.5928H225.7l11.8623,13.6055v-9.1328a5.2439,5.2439,0,0,0-.53-2.7872A3.1444,3.1444,0,0,0,235.02,115.13Z" transform="translate(-1.3442 -4.5788)" fill="#fff"/><path d="M245.5933,134.8355v-.5927a4.6256,4.6256,0,0,0,2.0927-.9747,3.7207,3.7207,0,0,0,.4825-2.3125V118.01a2.9042,2.9042,0,0,0-.4825-1.915,4.4562,4.4562,0,0,0-2.0927-.9658v-.5928H255.98q5.6586,0,8.9385,2.8633a9.5265,9.5265,0,0,1,3.2783,7.54,9.3075,9.3075,0,0,1-2.9317,7.2012,11.2651,11.2651,0,0,1-7.93,2.6943Zm9.6923-19.1465h-2.6435v15.6055a2.1082,2.1082,0,0,0,.7627,1.8467,4.5156,4.5156,0,0,0,2.541.542,6.68,6.68,0,0,0,5.4561-2.3379,10.1068,10.1068,0,0,0,1.9316-6.6084,9.7343,9.7343,0,0,0-2.1172-6.6172A7.4519,7.4519,0,0,0,255.2856,115.689Z" transform="translate(-1.3442 -4.5788)" fill="#fff"/><path d="M40.8013,156.2369h.6611v6.2861h-.6611a2.6121,2.6121,0,0,0-2.8125-2.5927H34.4136v5.9648a2.4977,2.4977,0,0,0,.625,1.9316,3.2289,3.2289,0,0,0,2.1474.5586H38.37q2.9766,0,4.2617-3.7783h.5928l-.373,4.9307H27.3989v-.5928a3.6523,3.6523,0,0,0,2.0362-.9238,3.81,3.81,0,0,0,.5048-2.33V152.6441a2.8768,2.8768,0,0,0-.5214-1.9736,3.8319,3.8319,0,0,0-2.02-.8389v-.5928H42.6138v4.5069H42.021a5.5464,5.5464,0,0,0-1.2617-2.669,3.5271,3.5271,0,0,0-2.4151-.6855H34.4136v8.3867h3.5752a2.6977,2.6977,0,0,0,1.8633-.5791A3.65,3.65,0,0,0,40.8013,156.2369Z" transform="translate(-1.3442 -4.5788)" fill="#fff"/><path d="M66.8892,149.2388v.5928a3.829,3.829,0,0,0-2.0049,1.0254,8.0625,8.0625,0,0,0-1.5108,2.72l-6.2558,16.4864h-.666L50.0464,153.78a10.6459,10.6459,0,0,0-1.5752-2.9825,3.2954,3.2954,0,0,0-2-.9658v-.5928h9.2353v.5928q-1.6977.2871-1.6972,1.4717a4.1558,4.1558,0,0,0,.3564,1.4365l4.042,10.3115,3.6113-9.7451a4.6657,4.6657,0,0,0,.3223-1.5254q0-1.61-2.1787-1.9492v-.5928Z" transform="translate(-1.3442 -4.5788)" fill="#fff"/><path d="M84.064,156.2369h.6611v6.2861H84.064a2.6121,2.6121,0,0,0-2.8125-2.5927H77.6763v5.9648a2.4977,2.4977,0,0,0,.625,1.9316,3.2289,3.2289,0,0,0,2.1474.5586h1.1836q2.9766,0,4.2617-3.7783h.5928l-.373,4.9307H70.6616v-.5928a3.6523,3.6523,0,0,0,2.0362-.9238,3.81,3.81,0,0,0,.5048-2.33V152.6441a2.8768,2.8768,0,0,0-.5214-1.9736,3.8319,3.8319,0,0,0-2.02-.8389v-.5928H85.8765v4.5069h-.5928a5.5464,5.5464,0,0,0-1.2617-2.669,3.5271,3.5271,0,0,0-2.4151-.6855H77.6763v8.3867h3.5752a2.6972,2.6972,0,0,0,1.8632-.5791A3.6489,3.6489,0,0,0,84.064,156.2369Z" transform="translate(-1.3442 -4.5788)" fill="#fff"/><path d="M90.1353,169.5377v-.5928q2.5752-.2035,2.5761-2.5928V152.6109a2.769,2.769,0,0,0-.5342-1.9492,3.9792,3.9792,0,0,0-2.0419-.83v-.5928h9.6582a10.65,10.65,0,0,1,5.8378,1.3379,4.2526,4.2526,0,0,1,2.0411,3.7618,4.4853,4.4853,0,0,1-1.0616,2.999,6.08,6.08,0,0,1-3.0439,1.83v.0683a3.1685,3.1685,0,0,1,1.542,1.1787,27.8193,27.8193,0,0,1,2.4082,3.9561,21.68,21.68,0,0,0,2.248,3.625,3.17,3.17,0,0,0,1.9229.9492v.5928h-5.8535a27.7267,27.7267,0,0,1-2.9532-4.9336,26.88,26.88,0,0,0-1.8417-3.2676,3.72,3.72,0,0,0-1.254-1.1436,6.673,6.673,0,0,0-2.6015-.33v6.2353a2.8826,2.8826,0,0,0,.5928,1.9912,3.294,3.294,0,0,0,2.0166.8555v.5928Zm8.4384-19.1465h-1.39v8.3193c.3506.0225.6777.0342.9834.0342a5.0361,5.0361,0,0,0,3.5322-1.043,4.33,4.33,0,0,0,1.11-3.2949Q102.81,150.39,98.5737,150.3912Z" transform="translate(-1.3442 -4.5788)" fill="#fff"/><path d="M132.6108,149.2388v5.6934h-.6269a8.03,8.03,0,0,0-2.7881-3.6943,6.9418,6.9418,0,0,0-4.1768-1.3721,5.3543,5.3543,0,0,0-4.77,2.626,13.6869,13.6869,0,0,0-1.6855,7.4043q0,4.4063,1.6777,6.71a5.6229,5.6229,0,0,0,4.8457,2.3047q3.05,0,3.05-2.1523v-3.0156a2.3061,2.3061,0,0,0-2.084-2.4913v-.5927h8.54v.5927a2.55,2.55,0,0,0-1.5508.9747,3.91,3.91,0,0,0-.4317,2.0761v4.3037a18.3551,18.3551,0,0,1-7.8789,1.4571,11.8754,11.8754,0,0,1-5.7109-1.3389,9.7316,9.7316,0,0,1-3.9053-3.8037,10.62,10.62,0,0,1-1.415-5.38,10.412,10.412,0,0,1,3.1347-7.7432,10.8006,10.8006,0,0,1,7.8965-3.0839,12.2254,12.2254,0,0,1,4.1.7959,5.7475,5.7475,0,0,0,1.6944.4238,2.0218,2.0218,0,0,0,1.458-.6944Z" transform="translate(-1.3442 -4.5788)" fill="#fff"/><path d="M147.2827,149.2388v.5928a4.4593,4.4593,0,0,0-2.1006.9317,2.6136,2.6136,0,0,0-.4746,1.7627V166.2a1.9554,1.9554,0,0,0,.669,1.7285,4.8709,4.8709,0,0,0,2.5332.457,4.753,4.753,0,0,0,3.0254-.8554,9.6167,9.6167,0,0,0,2.2451-3.2618h.5927l-.5927,5.27H137.6929v-.5928a4.1083,4.1083,0,0,0,2.0781-.9658,3.9439,3.9439,0,0,0,.4639-2.3213v-12.98a2.8822,2.8822,0,0,0-.4971-1.9229,4.1507,4.1507,0,0,0-2.0449-.9238v-.5928Z" transform="translate(-1.3442 -4.5788)" fill="#fff"/><path d="M169.3384,169.5377v-.5928a5.0368,5.0368,0,0,0,1.7637-.585,1.11,1.11,0,0,0,.5146-.9746,5.06,5.06,0,0,0-.3906-1.5586l-1.1739-3.1172h-7.2441l-1.0029,2.6924a5.0767,5.0767,0,0,0-.3838,1.66q0,1.34,2.0371,1.8828v.5928h-6.5576v-.5928a3.4446,3.4446,0,0,0,2.0674-1.2373,11.5568,11.5568,0,0,0,1.7461-3.3721l5.8378-15.622h2.7725l6.1729,16.249a9.6663,9.6663,0,0,0,1.663,3.0244,3.1566,3.1566,0,0,0,2.1231.958v.5928Zm-5.88-8.2862h6.0469l-3.09-8.2343Z" transform="translate(-1.3442 -4.5788)" fill="#fff"/><path d="M182.98,169.5377v-.5928a4.6258,4.6258,0,0,0,2.0928-.9746,3.7219,3.7219,0,0,0,.4824-2.3125V152.7125a2.9051,2.9051,0,0,0-.4824-1.9151,4.4572,4.4572,0,0,0-2.0928-.9658v-.5928h10.3867q5.6587,0,8.9385,2.8633a9.5267,9.5267,0,0,1,3.2783,7.54,9.3073,9.3073,0,0,1-2.9316,7.2011,11.2653,11.2653,0,0,1-7.93,2.6944Zm9.6924-19.1465h-2.6436v15.6055a2.108,2.108,0,0,0,.7627,1.8466,4.5148,4.5148,0,0,0,2.541.542,6.68,6.68,0,0,0,5.4561-2.3379,10.1061,10.1061,0,0,0,1.9316-6.6084,9.7333,9.7333,0,0,0-2.1172-6.6171A7.4515,7.4515,0,0,0,192.6724,150.3912Z" transform="translate(-1.3442 -4.5788)" fill="#fff"/><path d="M222.4087,156.2369h.6611v6.2861h-.6611a2.6121,2.6121,0,0,0-2.8125-2.5927H216.021v5.9648a2.4977,2.4977,0,0,0,.625,1.9316,3.2291,3.2291,0,0,0,2.1475.5586h1.1836q2.9765,0,4.2617-3.7783h.5927l-.373,4.9307H209.0063v-.5928a3.6516,3.6516,0,0,0,2.0362-.9238,3.81,3.81,0,0,0,.5049-2.33V152.6441a2.8767,2.8767,0,0,0-.5215-1.9736,3.8319,3.8319,0,0,0-2.02-.8389v-.5928h15.2149v4.5069h-.5928a5.5446,5.5446,0,0,0-1.2617-2.669,3.5268,3.5268,0,0,0-2.415-.6855H216.021v8.3867h3.5752a2.6974,2.6974,0,0,0,1.8633-.5791A3.6482,3.6482,0,0,0,222.4087,156.2369Z" transform="translate(-1.3442 -4.5788)" fill="#fff"/><path d="M241.2954,148.7135v5.3544h-.5928a6.52,6.52,0,0,0-2.0371-2.9912,4.6149,4.6149,0,0,0-2.9853-1.2109,3.6017,3.6017,0,0,0-2.3584.7959,2.4324,2.4324,0,0,0-.9727,1.9492,2.6349,2.6349,0,0,0,.2539,1.1094,3.4941,3.4941,0,0,0,.7373,1.0254,26.1476,26.1476,0,0,0,3.1123,2.1123,36.639,36.639,0,0,1,3.459,2.2822,8.5374,8.5374,0,0,1,1.4883,1.6455,5.7617,5.7617,0,0,1,1.082,3.375,5.3229,5.3229,0,0,1-1.9062,4.3076,6.9567,6.9567,0,0,1-4.6172,1.5948,14.1256,14.1256,0,0,1-3.4736-.5254,7.2333,7.2333,0,0,0-1.4912-.2715,1.0764,1.0764,0,0,0-1.0333.6611h-.5937V163.81h.5937a6.7332,6.7332,0,0,0,1.8975,3.7364,4.9515,4.9515,0,0,0,3.541,1.3642,4.2817,4.2817,0,0,0,2.6856-.8135,2.5,2.5,0,0,0,1.06-2.0673,3.1615,3.1615,0,0,0-.6777-1.9229,14.4237,14.4237,0,0,0-3.63-2.6621,20.6686,20.6686,0,0,1-3.5937-2.5029,5.9622,5.9622,0,0,1-1.7744-4.292,5.5815,5.5815,0,0,1,1.7851-4.2744,6.4727,6.4727,0,0,1,4.5938-1.6621,9.2629,9.2629,0,0,1,2.081.288,9.2406,9.2406,0,0,0,1.7256.27,1.559,1.559,0,0,0,1.0488-.5585Z" transform="translate(-1.3442 -4.5788)" fill="#fff"/><path d="M14.1851,198.5377V187.8609H21.74v2.001H16.4575v2.2412h5.17v2.001h-5.17v4.4336Z" transform="translate(-1.3442 -4.5788)" fill="#fff"/><path d="M24.5317,198.5377V187.8609h2.2891v8.6758h4.5137v2.001Z" transform="translate(-1.3442 -4.5788)" fill="#fff"/><path d="M33.1128,193.2076A5.3648,5.3648,0,0,1,38.7,187.6851a5.5227,5.5227,0,1,1,0,11.045A5.3654,5.3654,0,0,1,33.1128,193.2076Zm8.82,0A3.2516,3.2516,0,1,0,38.7,196.7125,3.229,3.229,0,0,0,41.9331,193.2076Z" transform="translate(-1.3442 -4.5788)" fill="#fff"/><path d="M53.1323,198.5377l-2.0967-3.794h-1.665v3.794H47.0981V187.8609h4.9942a3.3383,3.3383,0,0,1,3.6015,3.4414,3.0893,3.0893,0,0,1-2.3535,3.17l2.417,4.0655Zm.2246-7.251a1.4421,1.4421,0,0,0-1.5849-1.4248H49.3706v2.8818H51.772A1.4481,1.4481,0,0,0,53.3569,191.2867Z" transform="translate(-1.3442 -4.5788)" fill="#fff"/><path d="M58.62,198.5377V187.8609h2.2725v10.6768Z" transform="translate(-1.3442 -4.5788)" fill="#fff"/><path d="M64.269,198.5377V187.8609h4.21c3.3447,0,5.666,2.1289,5.666,5.3311,0,3.2324-2.3213,5.3457-5.65,5.3457Zm7.5547-5.3457a3.1158,3.1158,0,0,0-3.3291-3.33H66.5415v6.6748H68.479A3.1994,3.1994,0,0,0,71.8237,193.192Z" transform="translate(-1.3442 -4.5788)" fill="#fff"/><path d="M83.895,198.5377l-.6728-1.8086H78.645l-.6728,1.8086H75.395l4.1143-10.6768h2.8486l4.1143,10.6768Zm-2.9609-8.4033-1.6651,4.5937h3.3291Z" transform="translate(-1.3442 -4.5788)" fill="#fff"/><path d="M88.4233,192.3111l-.8808-.7207a2.6937,2.6937,0,0,0,1.2324-1.52.6946.6946,0,0,1-.3037.0488,1.0871,1.0871,0,0,1-1.0889-1.1533,1.2775,1.2775,0,0,1,1.2647-1.2637,1.4764,1.4764,0,0,1,1.4248,1.6319A3.69,3.69,0,0,1,88.4233,192.3111Z" transform="translate(-1.3442 -4.5788)" fill="#fff"/><path d="M92.3325,197.0328l1.2481-1.7764a4.6923,4.6923,0,0,0,3.3935,1.4561c1.2647,0,1.8565-.56,1.8565-1.1836,0-1.8574-6.1465-.5606-6.1465-4.5781,0-1.7774,1.5371-3.2491,4.05-3.2491a5.9383,5.9383,0,0,1,4.1621,1.4883l-1.2647,1.6963a4.5873,4.5873,0,0,0-3.1054-1.168c-.96,0-1.5049.4161-1.5049,1.0567,0,1.6806,6.1309.5439,6.1309,4.5293,0,1.9531-1.4082,3.4258-4.2735,3.4258A6.1617,6.1617,0,0,1,92.3325,197.0328Z" transform="translate(-1.3442 -4.5788)" fill="#fff"/><path d="M109.18,198.5377V187.8609h4.9941a3.4368,3.4368,0,1,1,0,6.8672h-2.7217v3.81Zm6.2588-7.2354a1.445,1.445,0,0,0-1.585-1.44h-2.4014v2.8652h2.4014A1.4416,1.4416,0,0,0,115.439,191.3023Z" transform="translate(-1.3442 -4.5788)" fill="#fff"/><path d="M126.9888,198.5377l-.6729-1.8086h-4.5771l-.6729,1.8086h-2.5771l4.1142-10.6768h2.8487l4.1142,10.6768Zm-2.961-8.4033-1.665,4.5937h3.3291Z" transform="translate(-1.3442 -4.5788)" fill="#fff"/><path d="M137.811,198.5377l-2.0966-3.794h-1.6651v3.794h-2.2724V187.8609h4.9941a3.3384,3.3384,0,0,1,3.6016,3.4414,3.0894,3.0894,0,0,1-2.3536,3.17l2.417,4.0655Zm.2246-7.251a1.4421,1.4421,0,0,0-1.5849-1.4248h-2.4014v2.8818h2.4014A1.4481,1.4481,0,0,0,138.0356,191.2867Z" transform="translate(-1.3442 -4.5788)" fill="#fff"/><path d="M150.9175,198.5377l-.6729-1.8086h-4.5771l-.6729,1.8086h-2.5771l4.1142-10.6768H149.38l4.1142,10.6768Zm-2.961-8.4033-1.665,4.5937h3.3291Z" transform="translate(-1.3442 -4.5788)" fill="#fff"/><path d="M155.7065,198.5377V187.8609h4.21c3.3447,0,5.666,2.1289,5.666,5.3311,0,3.2324-2.3213,5.3457-5.65,5.3457Zm7.5547-5.3457a3.1158,3.1158,0,0,0-3.3291-3.33H157.979v6.6748h1.9375A3.1994,3.1994,0,0,0,163.2612,193.192Z" transform="translate(-1.3442 -4.5788)" fill="#fff"/><path d="M168.436,198.5377V187.8609h2.2725v10.6768Z" transform="translate(-1.3442 -4.5788)" fill="#fff"/><path d="M173.3247,197.0328l1.2481-1.7764a4.6923,4.6923,0,0,0,3.3935,1.4561c1.2647,0,1.8565-.56,1.8565-1.1836,0-1.8574-6.1465-.5606-6.1465-4.5781,0-1.7774,1.5371-3.2491,4.05-3.2491a5.9386,5.9386,0,0,1,4.1621,1.4883l-1.2647,1.6963a4.5873,4.5873,0,0,0-3.1054-1.168c-.96,0-1.5049.4161-1.5049,1.0567,0,1.6806,6.1308.5439,6.1308,4.5293,0,1.9531-1.4082,3.4258-4.2734,3.4258A6.1617,6.1617,0,0,1,173.3247,197.0328Z" transform="translate(-1.3442 -4.5788)" fill="#fff"/><path d="M184.9282,198.5377V187.8609h7.5547v2.001h-5.2822v2.2412h5.17v2.001h-5.17v2.4326h5.2822v2.001Z" transform="translate(-1.3442 -4.5788)" fill="#fff"/><path d="M200.2554,193.2076a5.42,5.42,0,0,1,5.6982-5.5225,4.8517,4.8517,0,0,1,4.45,2.6094l-1.9531.96a2.8879,2.8879,0,0,0-2.4971-1.5528,3.5085,3.5085,0,0,0,0,7.0108,2.887,2.887,0,0,0,2.4971-1.5518l1.9531.9444a4.8916,4.8916,0,0,1-4.45,2.625A5.4294,5.4294,0,0,1,200.2554,193.2076Z" transform="translate(-1.3442 -4.5788)" fill="#fff"/><path d="M212.2456,193.2076a5.5789,5.5789,0,1,1,5.5869,5.5225A5.3648,5.3648,0,0,1,212.2456,193.2076Zm8.82,0a3.2516,3.2516,0,1,0-3.2334,3.5049A3.229,3.229,0,0,0,221.0659,193.2076Z" transform="translate(-1.3442 -4.5788)" fill="#fff"/><path d="M233.1519,198.5377l-.6729-1.8086h-4.5771l-.6729,1.8086h-2.5771l4.1142-10.6768h2.8486l4.1143,10.6768Zm-2.961-8.4033-1.665,4.5937h3.3291Z" transform="translate(-1.3442 -4.5788)" fill="#fff"/><path d="M237.3325,197.0328l1.2481-1.7764a4.6923,4.6923,0,0,0,3.3935,1.4561c1.2647,0,1.8565-.56,1.8565-1.1836,0-1.8574-6.1465-.5606-6.1465-4.5781,0-1.7774,1.5371-3.2491,4.05-3.2491a5.9383,5.9383,0,0,1,4.1621,1.4883l-1.2647,1.6963a4.5873,4.5873,0,0,0-3.1054-1.168c-.96,0-1.5049.4161-1.5049,1.0567,0,1.6806,6.1309.5439,6.1309,4.5293,0,1.9531-1.4082,3.4258-4.2735,3.4258A6.1617,6.1617,0,0,1,237.3325,197.0328Z" transform="translate(-1.3442 -4.5788)" fill="#fff"/><path d="M251.2837,198.5377v-8.6758h-3.1211v-2.001h8.5156v2.001h-3.1054v8.6758Z" transform="translate(-1.3442 -4.5788)" fill="#fff"/><path d="M103.55,41.2355a61.5723,61.5723,0,0,1,14.8465,9.11,89.1935,89.1935,0,0,1,8.2477,7.628q.32.3341.6428.6767c.21.2226-.0514.5766-.308.4115q-.84-.5392-1.6622-1.0882c-4.942-3.2837-9.5369-6.6312-15.4861-7.4788a9.89,9.89,0,0,0-6.0563,1.155,5.5407,5.5407,0,0,0-2.8363,5.36,3.6185,3.6185,0,0,0,.2054.9641,3.2974,3.2974,0,0,0,2.3576,2.1492,3.97,3.97,0,0,0,2.5486-.1368,17.0969,17.0969,0,0,1,6.7358-2.2727,22.6856,22.6856,0,0,1,4.6524.26,19.1472,19.1472,0,0,1,2.4375.4349c4.2358,1.0422,7.7141,4.0025,11.2719,6.635a6.2364,6.2364,0,0,0,8.2468,0c3.5578-2.6325,7.036-5.5928,11.2719-6.635a19.149,19.149,0,0,1,2.4372-.4349,22.6887,22.6887,0,0,1,4.6526-.26,17.0969,17.0969,0,0,1,6.7356,2.2727,3.9713,3.9713,0,0,0,2.5491.1368,3.2975,3.2975,0,0,0,2.3574-2.1492,3.6379,3.6379,0,0,0,.2053-.9641,5.5407,5.5407,0,0,0-2.8365-5.36,9.889,9.889,0,0,0-6.056-1.155c-5.9494.8476-10.5435,4.1951-15.4856,7.4788q-.8241.5469-1.6628,1.0882c-.2568.1651-.5179-.1889-.3079-.4115q.3222-.3428.6428-.6767a89.2315,89.2315,0,0,1,8.2474-7.628,61.5859,61.5859,0,0,1,14.8468-9.11,3.9251,3.9251,0,0,0,2.38-4.4823,3.5348,3.5348,0,0,0-1.0008-1.6631,3.9379,3.9379,0,0,0-3.229-1.02,6.47,6.47,0,0,0-2.6,1.02c-.2721.1747-.5373.3656-.7987.5683a90.1968,90.1968,0,0,0-14.6768,14.6874c-1.1622,1.4216-2.3151,2.8817-3.4776,4.3831a19.94,19.94,0,0,1-1.5411,1.92c-.0526.0511-.7562.4543-.3415-.5775a54.6551,54.6551,0,0,1,2.7021-5.7255c1.0266-1.8927,2.1636-3.7509,3.42-5.661a83.3693,83.3693,0,0,1,7.344-9.5947,98,98,0,0,1,7.0962-7.1759,5.2931,5.2931,0,0,0,1.8189-2.9887,4.1758,4.1758,0,0,0-.23-1.6932,3.8861,3.8861,0,0,0-4.2752-2.3094,3.45,3.45,0,0,0-1.8895.9086c-2.6049,2.5512-4.3056,5.528-6.1818,8.667-.7646,1.28-1.6353,2.8586-2.5474,4.5916-2.6087,4.9572-5.5528,11.1757-7.309,15.2557a37.2785,37.2785,0,0,0-1.5,3.8585c-.1032.3838-.3649,1.0249-.7348.9936-.0717-.0057-.1078-.3866-.06-.61.3413-1.6073.5808-2.7394.9411-4.2423A107.2441,107.2441,0,0,1,145.0515,35.09a81.186,81.186,0,0,1,10.2621-18.1645,3.64,3.64,0,0,0-.2356-4.7055,3.6357,3.6357,0,0,0-5.2293-.3722c-.1058.1125-5.2905,5.94-9.3778,24.23-.9942,4.449-1.9731,8.4524-2.729,12.9147-.0778.46-.1492.9089-.2209,1.3528-.1619,1.0035-.3247,1.9823-.5662,3.0164-.055.236-.17.4439-.3965.4807-.063.01-.1449-.12-.1489-.2007a23.4436,23.4436,0,0,1,.122-3.2964c.0107-.1171.0211-.2345.0321-.3519-.0381.4144.677-6.582,1.4581-14.9038.9447-10.0608,1.9858-22.058,1.9088-25.2384a6.0354,6.0354,0,0,0-1.0193-3.5867,4.7727,4.7727,0,0,0-7.2807,0,6.0439,6.0439,0,0,0-1.0193,3.5867c-.0767,3.18.9644,15.1776,1.9088,25.2384.7814,8.3218,1.4971,15.3182,1.4583,14.9038q.0165.1761.0322.3519a23.4587,23.4587,0,0,1,.122,3.2964c-.0043.0812-.0856.2108-.1489.2007-.2262-.0368-.3416-.2447-.3968-.4807-.2415-1.0341-.4043-2.0129-.5659-3.0164-.0717-.4439-.1432-.8927-.2209-1.3528-.7557-4.4623-1.7348-8.4657-2.729-12.9147-4.0873-18.29-9.272-24.1179-9.3778-24.23a3.6356,3.6356,0,0,0-5.2293.3722,3.64,3.64,0,0,0-.2356,4.7055A81.2016,81.2016,0,0,1,125.49,35.09a107.2193,107.2193,0,0,1,4.75,15.2557c.3612,1.5029.6,2.635.9412,4.2423.0472.2232.0114.6041-.06.61-.37.0313-.6316-.61-.7349-.9936a37.2466,37.2466,0,0,0-1.5-3.8585c-1.7566-4.08-4.7-10.2985-7.309-15.2557-.9115-1.733-1.7828-3.3119-2.5477-4.5916-1.8762-3.139-3.5769-6.1158-6.1815-8.667a3.4506,3.4506,0,0,0-1.8895-.9086,3.8864,3.8864,0,0,0-4.2755,2.3094,4.1809,4.1809,0,0,0-.23,1.6932,5.2937,5.2937,0,0,0,1.8193,2.9887A97.9988,97.9988,0,0,1,115.37,35.09a83.3925,83.3925,0,0,1,7.3441,9.5947c1.2567,1.91,2.3935,3.7683,3.42,5.661a54.7763,54.7763,0,0,1,2.7021,5.7255c.4147,1.0318-.2892.6286-.3416.5775a20.0306,20.0306,0,0,1-1.541-1.92c-1.1625-1.5014-2.3154-2.9615-3.4777-4.3831a90.1981,90.1981,0,0,0-14.677-14.6874c-.26-.2027-.526-.3936-.7984-.5683a6.4717,6.4717,0,0,0-2.6006-1.02,3.9372,3.9372,0,0,0-3.2287,1.02,3.5348,3.5348,0,0,0-1.0008,1.6631A3.9247,3.9247,0,0,0,103.55,41.2355Z" transform="translate(-1.3442 -4.5788)" fill="#fff"/></svg>