<svg id="Layer_1" data-name="Layer 1" xmlns="http://www.w3.org/2000/svg" viewBox="0 0 507.5631 105.2246" width="578" height="243.44"><title>partner</title><path d="M57.2277,8.4622,34.7971,65.9388H28.321L5.7248,8.4622l7.25-.0263L26.6135,42.5247c2.4712,6.5039,3.0727,8.0684,4.95,14.1387h.3393c1.87-6.07,2.3863-7.5488,4.9488-14.1387L50.3972,8.4359Z" transform="translate(-5.2764 -7.1341)" fill="#fff"/><path d="M72.74,65.9388H65.3264V8.1409H72.74Z" transform="translate(-5.2764 -7.1341)" fill="#fff"/><path d="M111.7844,19.4564c-4.5181-3.8145-7.7559-5.2969-11.5952-5.2969-5.1968,0-8.9473,3.5635-8.9473,8.5088a8.1958,8.1958,0,0,0,3.8354,6.8408c1.9585,1.3057,2.8106,1.7441,9.8838,5.0381,8.7,4.1631,11.9375,8.3271,11.9375,15.6113,0,9.8867-7.67,16.9131-18.3281,16.9131-5.7944,0-10.8286-1.8223-16.1977-5.9l1.5336-7.89c4.8575,4.8505,10.0611,7.2851,15.4346,7.2851,5.8789,0,9.9717-3.9033,9.9717-9.63,0-4.0752-2.4736-6.7636-8.523-9.5449L95.7565,39.138c-7.7558-3.3809-11.5957-8.4961-11.5957-15.4336,0-9.2793,6.9888-16.1348,16.5411-16.1348a20.5427,20.5427,0,0,1,14.1547,5.4688Z" transform="translate(-5.2764 -7.1341)" fill="#fff"/><path d="M134.716,65.9388h-7.4136V8.1409h7.4136Z" transform="translate(-5.2764 -7.1341)" fill="#fff"/><path d="M189.1129,8.1409v6.9776h-17.65a4.9088,4.9088,0,0,1-1.9652-.2617,4.9135,4.9135,0,0,1,.2694,1.998v49.084h-7.4243V16.8548a5.1821,5.1821,0,0,1,.2544-1.998,4.8737,4.8737,0,0,1-1.9579.2617h-17.57V8.1409Z" transform="translate(-5.2764 -7.1341)" fill="#fff"/><path d="M226.2369,8.3079l-29.957.003V65.87H209V42.2318h17.9009V30.6927H209V19.8577h20.187V8.3079Z" transform="translate(-5.2764 -7.1341)" fill="#fff"/><path d="M242.652,8.0706h-9.7769V65.71h34.15l2.082-11.54H245.5987v-46.1Z" transform="translate(-5.2764 -7.1341)" fill="#fff"/><path d="M295.6236,7.1341c-17.084,0-29.9658,12.7129-29.9658,29.5664,0,17.2158,12.4805,30.1865,29.02,30.1865,17.4072,0,29.5654-12.123,29.5654-29.4814C324.2437,20.1487,311.942,7.1341,295.6236,7.1341Zm.2315,47.5859c-9.666,0-16.6846-8.0429-16.6846-19.122,0-9.8916,6.1328-16.53,15.2744-16.53,9.2295,0,16.4531,8.4316,16.4531,19.1973C310.898,48.1077,304.8531,54.72,295.8551,54.72Z" transform="translate(-5.2764 -7.1341)" fill="#fff"/><path d="M357.9518,41.1341s-.1407-.1855-.3505-.4512c5.7811-3.3476,8.9784-8.4629,8.9784-15.22,0-11.252-8.4649-17.7139-23.2168-17.7139a103.208,103.208,0,0,0-12.1006.8037l-2.6162.3V65.87h12.7246V44.512h3.7451c1.55,2.253,14.6875,21.3575,14.6875,21.3575h15.44Zm-9.6387-7.6152h-6.9424V19.4c1.3516-.0879,2.7041-.1845,2.7041-.1845,8.6191,0,9.624,4.2421,9.624,7.4287C353.6988,30.3685,351.23,33.5189,348.3131,33.5189Z" transform="translate(-5.2764 -7.1341)" fill="#fff"/><path d="M386.5709,8.0706h-9.7695V65.87h12.7159V8.0706Z" transform="translate(-5.2764 -7.1341)" fill="#fff"/><path d="M435.024,16.1888c-5.6787-5.3145-14.4062-8.1182-25.2822-8.1182L399.64,8.3948c.0663,0-1.5128.0743-1.5128.0743h.0069l-4.4619.2031V65.2269l2.6982.2363c4.5449.3877,7.4229.5645,11.4834.5645,8.0937,0,13.8154-.8008,19.13-2.6934,9.9648-3.6436,16.6416-14.124,16.6416-26.0879A29.0525,29.0525,0,0,0,435.024,16.1888Zm-7.6347,31.834c-2.3145,3.4375-4.462,5.0224-11.81,5.9336a79.1069,79.1069,0,0,1-8.1133.52s-.6455-.0381-1.0674-.06V19.765c.66-.0293,1.4551-.0664,1.4551-.0664a31.0865,31.0865,0,0,1,13.34,2.5312c5.5284,2.6025,9.0821,8.8281,9.0821,15.8721A17.9789,17.9789,0,0,1,427.3893,48.0228Z" transform="translate(-5.2764 -7.1341)" fill="#fff"/><path d="M472.57,7.2083h-9.0361L439.1754,65.87h13.2217s5.4922-13.5167,6.6748-16.4122h17.39c1.1719,2.9092,6.6006,16.4122,6.6006,16.4122h13.6094ZM469.9713,38.46h-4.3184s-1.2275.0293-2.1562.0508c.373-.837.8789-1.9571.8789-1.9571,0-.0078,1.8877-4.6367,1.8877-4.6367,0-.0078.7246-1.9687,1.5693-4.2451.7687,2.0322,1.6133,4.26,1.6133,4.26l1.8926,4.5546.375.9551s.3252.7276.4688,1.0694C471.2154,38.49,469.9713,38.46,469.9713,38.46Z" transform="translate(-5.2764 -7.1341)" fill="#fff"/><path d="M290.6168,95.64c-25.7305,3.1816-50.0518,6.1826-77.189,8.0937-39.3423,2.7617-73.2577,3.8672-103.6532,3.3711-.03,0-17.5039-.0176-11.7544,1.2119,1.3169.2822,91.7568,6.0567,139.1708,2.7227,30.1485-2.1123,54.6-5.96,80.4824-10.0391,26.085-4.1074,53.0821-8.3564,86.7189-10.706,22.5067-1.586,42.4081-2.37,57.7235-2.2579.332-.0107,19.1105-.1679,32.0088,1.8272a8.4389,8.4389,0,0,0,3.999-.5049c1.041-.415-36.539-8.96-108.6689-3.874C350.5583,88.2122,320.0993,91.9935,290.6168,95.64Z" transform="translate(-5.2764 -7.1341)" fill="#fff"/><path d="M5.5661,79.515c-.4868.413-.35.955.3355,1.2832,68.0512,32.8261,251.3109,8.9609,259.0433,7.917,1.0889-.1436,1.7384-.6719,1.543-1.1934-.1768-.544-1.1406-.915-2.2539-.8662-58.7167,2.832-132.5761,3.459-181.9394,1.3877-33.018-1.377-73.955-8.9424-74.3232-9.0078A3.2707,3.2707,0,0,0,5.5661,79.515Z" transform="translate(-5.2764 -7.1341)" fill="#fff"/><path d="M498.8775,103.5189c.292-.29.1758-.6338-.2782-.8145-45.753-17.7129-163.1466,7.2539-168.1007,8.335-.69.1474-1.0927.5254-.9433.8642.1523.333.793.52,1.5088.4346,37.8652-4.8809,85.6455-9.1211,117.7022-10.3564,21.4482-.8223,48.34,1.9511,48.582,1.9765a2.1253,2.1253,0,0,0,1.5292-.4394" transform="translate(-5.2764 -7.1341)" fill="#fff"/><path d="M505.6423,52.0565a7.3134,7.3134,0,1,1-.045,0Zm-.089,1.2524a5.8812,5.8812,0,0,0,.089,11.7578,5.599,5.599,0,0,0,5.5888-5.8559,5.6734,5.6734,0,0,0-5.6338-5.9019Zm-1.2539,9.792h-1.3848V55.6326a14.4376,14.4376,0,0,1,2.5928-.2231,3.7016,3.7016,0,0,1,2.3692.582,1.8841,1.8841,0,0,1-.7149,3.3535v.0884a2.24,2.24,0,0,1,1.2529,1.7891,5.6441,5.6441,0,0,0,.5362,1.8784H507.52a5.0956,5.0956,0,0,1-.582-1.9683c-.1787-.8047-.67-1.1626-1.7442-1.1626h-.8945Zm0-4.2041h.94c1.0285,0,1.9219-.3135,1.9219-1.207,0-.7159-.4472-1.2071-1.7881-1.2071a5.1979,5.1979,0,0,0-1.0742.09Z" transform="translate(-5.2764 -7.1341)" fill="#fff"/></svg>
