<svg id="Layer_1" data-name="Layer 1" xmlns="http://www.w3.org/2000/svg" viewBox="0 0 146.9137 46.3948" width="578" height="243.44"><title>sarasota</title><polygon points="40.574 7.286 41.387 7.286 43.828 13.049 46.28 7.286 47.094 7.286 44.19 14.066 43.478 14.066 40.574 7.286 40.574 7.286" fill="#fff"/><polygon points="51.174 14.066 50.383 14.066 50.383 7.286 51.174 7.286 51.174 14.066 51.174 14.066" fill="#fff"/><path d="M56.3088,14.6258a2.9124,2.9124,0,0,0,1.9437.6552c1.1751,0,1.6723-.4742,1.6723-1.1636,0-.633-.3842-.9493-1.7853-1.3675-1.5595-.4742-2.2487-.96-2.2487-1.9886,0-1.1072.9152-1.8191,2.4069-1.8191a3.1541,3.1541,0,0,1,2.2261.6667l-.43.6552a2.68,2.68,0,0,0-1.7966-.5763c-.9152,0-1.5934.3728-1.5934,1.0735,0,.5537.4182.8362,1.7854,1.2429,1.7176.4973,2.2486,1.0962,2.2486,2.1019,0,1.0962-.8362,1.9209-2.4746,1.9209a3.322,3.322,0,0,1-2.3844-.8022l.4295-.599Z" transform="translate(-1.0432 -1.8026)" fill="#fff"/><polygon points="64.092 14.066 63.301 14.066 63.301 7.286 64.092 7.286 64.092 14.066 64.092 14.066" fill="#fff"/><polygon points="67.562 7.286 72.862 7.286 72.862 8.021 70.602 8.021 70.602 14.066 69.811 14.066 69.811 8.021 67.562 8.021 67.562 7.286 67.562 7.286" fill="#fff"/><path d="M11.3425,43.2158c-5.9083,0-10.2993-2.8729-10.2993-7.8056,0-5.0952,4.9329-8.1852,9.2693-8.1852a4.1327,4.1327,0,0,1,2.8188.8132.2812.2812,0,0,1-.2168.4878C9.0657,28.6345,4.73,31.5616,4.73,35.8438c0,3.09,2.06,5.4208,6.6129,5.4208,7.2094,0,11.6545-4.9871,11.6545-9.974,0-7.1551-11.763-8.2393-11.763-17.7255,0-5.7456,6.5591-11.7625,15.34-11.7625,5.9083,0,9.703,2.71,9.703,7.2632,0,4.8788-4.8789,7.86-8.7272,7.86a4.0544,4.0544,0,0,1-2.6558-.759.2811.2811,0,0,1,.2163-.4878c3.632-.1083,7.6432-3.09,7.6432-6.9925,0-3.09-2.06-4.8786-6.1251-4.8786-6.83,0-11.1126,4.1739-11.1126,8.89,0,8.3479,11.98,8.4561,11.98,17.7255,0,6.0169-6.9384,12.7925-16.1536,12.7925" transform="translate(-1.0432 -1.8026)" fill="#fff"/><path d="M66.4651,34.0911a.662.662,0,0,0,.7591.7591c3.5231,0,10.2988-8.6189,11.6539-10.6789a.44.44,0,0,1,.4337-.2168c.8132,0,2.0059,1.4637,2.0059,2.331,0,.6505-1.03,2.6558-1.03,6.2337,0,2.8729.65,4.4449,1.8429,5.4747.2168.1629.1083.4878-.2171.4878-3.1436,0-5.041-2.602-5.041-6.2879a23.6649,23.6649,0,0,1,.1629-2.5473S70.8015,37.56,65.6519,37.56a2.7275,2.7275,0,0,1-3.0356-2.9815c0-4.9324,7.8057-13.8766,15.5572-13.8766a3.423,3.423,0,0,1,2.8188,1.3554c.1086.1624.1086.4331-.2168.4331-7.4262,0-14.31,8.7274-14.31,11.6" transform="translate(-1.0432 -1.8026)" fill="#fff"/><path d="M86.7084,37.94c-2.5478,0-4.1739-1.301-4.1739-2.8729a3.3371,3.3371,0,0,1,.7587-2.0054c.271-.3254.5422-.3254.6505,0,.7047,1.8971,2.0054,3.2519,3.9027,3.2519a2.711,2.711,0,0,0,2.873-2.8182c0-2.8733-4.77-3.8489-4.77-7.21,0-2.4934,2.5478-5.5291,7.535-5.5291,2.5475,0,3.8485.9756,3.8485,2.5476a3.3371,3.3371,0,0,1-.759,2.0059c-.271.3251-.542.3251-.65,0-.7049-1.8432-1.7893-2.9274-3.6867-2.9274a2.4736,2.4736,0,0,0-2.6558,2.6564c0,2.7642,4.8247,3.3063,4.8247,7.2635,0,2.4936-2.71,5.6373-7.6974,5.6373" transform="translate(-1.0432 -1.8026)" fill="#fff"/><path d="M63.8147,21.0274c-3.361,0-7.2637,5.9084-8.9983,8.7271a18.5837,18.5837,0,0,0,.9758-5.2577,3.9687,3.9687,0,0,0-.8945-2.7851c-.36-.3105-1.3232-1.4051-6.6028-1.4836a22.3491,22.3491,0,0,0-6.0608.6275C34.7928,22.5092,28.58,30.0537,28.58,34.5787A2.7275,2.7275,0,0,0,31.6159,37.56c5.15,0,11.3835-7.914,11.3835-7.914a23.7045,23.7045,0,0,0-.1627,2.5479c0,3.6858,1.8974,6.2878,5.041,6.2878.3254,0,.4337-.3254.2169-.488-1.1925-1.03-1.843-2.602-1.843-5.4747,0-3.5776,1.03-5.5834,1.03-6.2339,0-.8671-1.1927-2.3305-2.0059-2.3305a.44.44,0,0,0-.4337.2163C43.487,26.2312,36.7113,34.85,33.1881,34.85a.6619.6619,0,0,1-.759-.759c0-2.68,5.9946-10.456,12.83-11.4844.08-.0115.169-.0233.2673-.0351.1036-.0128.2075-.0235.3118-.0329.1114-.0107.2315-.02.3563-.0277.1812-.01.3627-.02.545-.02.0136,0,.0236-.0031.0359-.0039a9.6287,9.6287,0,0,1,2.1128.1821,5.3445,5.3445,0,0,1,3.2465,1.65,3.2658,3.2658,0,0,1,.3322.6508,1.6672,1.6672,0,0,1,.131.6031c.0675,1.3232-2.28,8.1114-2.28,9.3854a2.4494,2.4494,0,0,0,2.06,2.4937c.2171,0,.38-.0541.4336-.2168,2.7106-6.4506,6.7757-12.4676,9.3235-12.4676.7047,0,.9215.759.9215,1.6264a.4215.4215,0,0,0,.5964.3792,4.1011,4.1011,0,0,0,2.2768-3.4146c0-1.41-.65-2.3311-2.1142-2.3311" transform="translate(-1.0432 -1.8026)" fill="#fff"/><path d="M125.4776,18.0909a8.2674,8.2674,0,0,0,.667-2.5572,3.2593,3.2593,0,0,0-1.68-3.1735c-.3753-.2233-.7567-.1213-.7651.3664a11.8788,11.8788,0,0,1-1.2073,4.2066,18.2245,18.2245,0,0,1,2.9857,1.1577Z" transform="translate(-1.0432 -1.8026)" fill="#fff"/><path d="M102.1272,21.2014s.1062-.1127.3048-.324c.1028-.1025.22-.2366.375-.38.157-.1415.3361-.3092.5456-.49.2119-.1747.4546-.3547.7172-.56.2715-.1886.5653-.3994.8951-.5974a17.4715,17.4715,0,0,1,2.3182-1.1646,18.9915,18.9915,0,0,1,2.9517-.8917,20.8,20.8,0,0,1,3.4238-.4378,21.3777,21.3777,0,0,1,7.46.98c.3306.1093.5814.193.8971.31.3071.1119.6079.2253.8961.34.5849.2272,1.153.4663,1.707.7075,1.1116.4752,2.1709.9488,3.1983,1.3339a17.7486,17.7486,0,0,0,2.982.8777,13.7044,13.7044,0,0,0,1.4148.2013c.4624.037.9136.0542,1.3491.051a14.9393,14.9393,0,0,0,2.3906-.2154,17.456,17.456,0,0,0,1.8461-.4234c.5064-.1573.9082-.293,1.1794-.3948.2689-.1059.4182-.1573.4182-.1573s-.1145.1051-.34.2927a10.2363,10.2363,0,0,1-1.0342.7476,11.2747,11.2747,0,0,1-1.78.9243,11.97,11.97,0,0,1-2.5319.74,12.3188,12.3188,0,0,1-1.517.1779,11.8811,11.8811,0,0,1-1.6468-.0223,15.4149,15.4149,0,0,1-3.4492-.6929c-1.1511-.3548-2.2826-.8086-3.3947-1.275l-1.6622-.688c-.2783-.1141-.5493-.219-.8169-.32-.2571-.1009-.5888-.21-.8375-.3023a22.6871,22.6871,0,0,0-3.3563-.8739,23.9739,23.9739,0,0,0-3.3621-.3591,23.6376,23.6376,0,0,0-3.18.0909,22.0357,22.0357,0,0,0-2.8293.4566,18.8379,18.8379,0,0,0-2.3347.7137c-.3384.1362-.656.2676-.95.3925-.2851.1391-.5542.262-.7891.3842-.2283.13-.44.2395-.6233.3391s-.3311.2031-.4548.2775l-.38.231Z" transform="translate(-1.0432 -1.8026)" fill="#fff"/><path d="M147.8489,21.7578l-.12-.0848a4.07,4.07,0,0,0-.36-.2371,6.6869,6.6869,0,0,0-1.5149-.6868,6.9326,6.9326,0,0,0-2.6585-.2833l-.4028.0472-.4154.0726c-.1469.0337-.3.0741-.4478.1133l-.1846.0542-.0928.0275-.0469.0137-.0235.007c.0217-.01-.0421.0166-.0408.016l-.0131.0046a11.9736,11.9736,0,0,0-1.6481.7139c-.5461.2746-1.0747.5879-1.602.8868l-.7873.4386c-.2587.1419-.53.2783-.7648.3864l-.2195.0989-.113.0506-.0143.0064c-.0239.0121.0167-.0091.0083-.0054l-.0245.0095-.0487.0189c-.1287.0535-.2584.1061-.3926.1524a8.0141,8.0141,0,0,1-.8276.2508,12.6581,12.6581,0,0,1-1.8118.3124c-.32.0282-.6457.0535-.9787.0736-.1661.0074-.3385.0174-.502.0209l-.5265.0114a12.8314,12.8314,0,0,1-1.9078-.136,18.8988,18.8988,0,0,1-3.9736-1.1577c-.68-.2638-1.3682-.5523-2.066-.8465-.3461-.1481-.7049-.2945-1.0651-.44l-.5265-.2089-.2767-.1073-.277-.1037a25.642,25.642,0,0,0-4.459-1.2485c-.3717-.0636-.7384-.1311-1.107-.1743l-.5477-.0724q-.2742-.0248-.5459-.0494c-.7229-.0627-1.4351-.0791-2.1264-.0713a17.9015,17.9015,0,0,0-3.8541.4847,14.7717,14.7717,0,0,0-1.6423.4914,13.0714,13.0714,0,0,0-1.4279.583A13.62,13.62,0,0,0,103.33,22.45c-.2444.1789-.4546.35-.6372.5091-3.24,2.3408-5.9747,6.2074-6.0954,9.9122-.113,3.4675,2.3311,4.8244,5.0957,4.8244,5.5288,0,10.7872-4.2129,10.7872-9.2541a5.8035,5.8035,0,0,0-.0345-.6365,7.347,7.347,0,0,0-.3484-1.7554c-.5951-1.8014-1.724-2.6273-3.0623-2.1851a2.3111,2.3111,0,0,0-1.1161.7683c-.19.291-.19.4622.1352.5831.5137.1729.9924.7569,1.3834,1.9409a3.7342,3.7342,0,0,1,.1708,1.1133c0,.091-.0005.1873-.0005.2851-.0058.26-.0233.52-.0385.7779a7.492,7.492,0,0,1-4.9617,6.1351c-4.7084,1.31-4.1172-3.0969-4.1172-3.0969v0c.65-4.5853,4.54-10.954,11.4282-10.5392.1274.0123.253.0205.3816.0356q.5384.061,1.09.1507c.0821.0156.1638.03.2467.048l-.0965-.0226c.2126.0367.426.0761.64.1219l.48.0964.4815.1156c.323.0715.6453.1669.97.2577.3254.0877.6481.2026.9764.2983.3257.11.6529.2217.98.341.2913.1157.5869.2237.8784.3472-.1711.2553-.3436.5119-.5035.7657-2.1142,3.3067-3.7945,6.9382-3.7945,9.8656,0,2.8186,1.4634,3.9568,3.6318,3.9568,3.6858,0,6.83-3.7946,7.101-6.0168.0541-.3793-.3254-.5961-.5425-.2168-1.0838,1.7343-3.577,3.6858-5.2578,3.6858-.9759,0-1.5717-.4336-1.5717-1.409,0-2.4145,1.6625-5.947,3.7962-9.3388l.2213.1057c.6869.3238,1.39.6542,2.1168.9716s1.488.6039,2.2724.8572a15.1293,15.1293,0,0,0,2.4364.588,14.3181,14.3181,0,0,0,1.6617.1484c-1.9841,2.4213-3.2274,5.0258-3.2274,6.993a2.7276,2.7276,0,0,0,3.0357,2.9815c5.15,0,11.3835-7.9139,11.3835-7.9139a23.6482,23.6482,0,0,0-.163,2.5473c0,3.6859,1.8974,6.2878,5.0411,6.2878.3254,0,.4339-.3248.2171-.4878-1.1925-1.03-1.843-2.6017-1.843-5.4746,0-3.5779,1.03-5.5833,1.03-6.2337,0-.8674-1.1927-2.3311-2.0058-2.3311a.44.44,0,0,0-.4337.2168c-1.3551,2.06-8.1308,10.6789-11.654,10.6789-.5964,0-.7591-.3253-.7591-.759,0-1.0606,1.1166-2.9357,2.83-4.8731,4.7491-5.6932,8.572-7.0839,10.9229-7.2587a6.0519,6.0519,0,0,1,.7633-.03,7.4361,7.4361,0,0,1,1.4524.16c.3369.0732.52.122.52.122l.0107.003a.256.256,0,0,0,.2134-.4563Z" transform="translate(-1.0432 -1.8026)" fill="#fff"/><path d="M55.33,43.1981H52.4744V44.89H55.095v.8212H52.4744v2.3777h-.8626V42.378H55.33Z" transform="translate(-1.0432 -1.8026)" fill="#fff"/><path d="M57.3452,42.0185h.837v6.07h-.837Z" transform="translate(-1.0432 -1.8026)" fill="#fff"/><path d="M64.3431,46.0289a2.1311,2.1311,0,1,1-2.1347-2.16A2.0877,2.0877,0,0,1,64.3431,46.0289Zm-.837,0a1.2955,1.2955,0,1,0-1.2977,1.3647A1.276,1.276,0,0,0,63.5061,46.0289Z" transform="translate(-1.0432 -1.8026)" fill="#fff"/><path d="M68.6868,43.9518l-.1672.8714a2.44,2.44,0,0,0-.6535-.134c-.5359,0-.787.5108-.787,1.3146v2.0847h-.837V43.9692h.7031l.0419.5686h.0169a1.2083,1.2083,0,0,1,1.1137-.6688A2.3494,2.3494,0,0,1,68.6868,43.9518Z" transform="translate(-1.0432 -1.8026)" fill="#fff"/><path d="M70.97,43.2155a.4814.4814,0,1,1,0-.9628.4816.4816,0,1,1,0,.9628Zm-.4182.7537h.837v4.1193h-.837Z" transform="translate(-1.0432 -1.8026)" fill="#fff"/><path d="M77.5505,42.0185v6.07h-.7036l-.0333-.5522h-.0168a1.949,1.949,0,0,1-1.4819.6524,2.1695,2.1695,0,0,1,0-4.3284,1.9138,1.9138,0,0,1,1.3817.561h.0163V42.0185Zm-.8289,4.01a1.2955,1.2955,0,1,0-1.2977,1.3647A1.2785,1.2785,0,0,0,76.7216,46.0289Z" transform="translate(-1.0432 -1.8026)" fill="#fff"/><path d="M83.2518,45.5682v2.52h-.7036l-.0338-.4945h-.0163a1.7255,1.7255,0,0,1-1.3735.6034,1.3839,1.3839,0,0,1-1.5406-1.3811c0-.88.6366-1.3734,1.75-1.3734a6.8214,6.8214,0,0,1,1.08.0915v-.1166c0-.5282-.3262-.7874-.9879-.7874a2.4125,2.4125,0,0,0-1.3228.3681l-.3937-.6949a3.8685,3.8685,0,0,1,1.7083-.4433C82.6821,43.86,83.2518,44.5215,83.2518,45.5682Zm-.8376.8452v-.1079a4.6513,4.6513,0,0,0-.971-.1176c-.5947,0-1.0217.15-1.0217.6284,0,.4433.4019.6361.8627.6361A1.0507,1.0507,0,0,0,82.4142,46.4134Z" transform="translate(-1.0432 -1.8026)" fill="#fff"/><path d="M85.6861,42.0185a15.1717,15.1717,0,0,1-.7287,2.0422h-.5947a17.7961,17.7961,0,0,0,.4858-2.0422Z" transform="translate(-1.0432 -1.8026)" fill="#fff"/><path d="M86.8068,47.008a1.9057,1.9057,0,0,0,1.1894.427c.57,0,.8038-.2429.8038-.4771,0-.2929-.2254-.4607-.9541-.6273-.93-.2179-1.39-.6535-1.39-1.2983s.5686-1.1633,1.54-1.1633a2.9509,2.9509,0,0,1,1.6163.4521l-.4694.67a1.8952,1.8952,0,0,0-1.1306-.3692c-.477,0-.72.1927-.72.4193,0,.293.3017.427.8713.5609,1.1056.268,1.4737.7537,1.4737,1.3648,0,.6611-.57,1.2307-1.6414,1.2307a2.7408,2.7408,0,0,1-1.6577-.5271Z" transform="translate(-1.0432 -1.8026)" fill="#fff"/><path d="M100.1416,47.5439a4.4039,4.4039,0,0,1-2.2688.6535,2.96,2.96,0,0,1,0-5.92,2.8485,2.8485,0,0,1,2.2274.9628l-.6535.5773a1.9779,1.9779,0,0,0-1.5739-.7276,2.1488,2.1488,0,0,0,0,4.2946,3.5576,3.5576,0,0,0,1.4073-.293v-1.331H97.9317v-.82h2.21Z" transform="translate(-1.0432 -1.8026)" fill="#fff"/><path d="M106.0253,43.9692v4.1193h-.7025l-.0338-.5359h-.0163a1.9375,1.9375,0,0,1-1.4573.6361,1.6,1.6,0,0,1-1.5989-1.8167V43.9692h.8365v2.16c0,.9465.4269,1.2809.9966,1.2809a1.1945,1.1945,0,0,0,1.1392-1.306V43.9692Z" transform="translate(-1.0432 -1.8026)" fill="#fff"/><path d="M108.2255,42.0185h.8375v6.07h-.8375Z" transform="translate(-1.0432 -1.8026)" fill="#fff"/><path d="M112.4939,43.9692h1.2471v.77h-1.2471v3.3492h-.8375V44.7393h-.6024v-.77h.6024v-.452c0-.98.4182-1.6,1.2983-1.6a3.9327,3.9327,0,0,1,.8789.1177l-.159.7787a2.0987,2.0987,0,0,0-.6361-.1252c-.4106,0-.5446.3594-.5446.82Z" transform="translate(-1.0432 -1.8026)" fill="#fff"/><path d="M123.3672,47.1921a2.91,2.91,0,0,1-2.26,1.0053,2.96,2.96,0,0,1,0-5.92,2.8463,2.8463,0,0,1,2.2263.9628l-.6524.5773a1.978,1.978,0,0,0-1.5739-.7276,2.1488,2.1488,0,0,0,0,4.2946,1.9939,1.9939,0,0,0,1.5989-.7613Z" transform="translate(-1.0432 -1.8026)" fill="#fff"/><path d="M128.9666,46.0289a2.1311,2.1311,0,1,1-2.1348-2.16A2.088,2.088,0,0,1,128.9666,46.0289Zm-.8376,0a1.2953,1.2953,0,1,0-1.2972,1.3647A1.2758,1.2758,0,0,0,128.129,46.0289Z" transform="translate(-1.0432 -1.8026)" fill="#fff"/><path d="M134.2807,45.5682v2.52h-.7036l-.0327-.4945h-.0174a1.7239,1.7239,0,0,1-1.3735.6034,1.3837,1.3837,0,0,1-1.54-1.3811c0-.88.6361-1.3734,1.75-1.3734a6.8132,6.8132,0,0,1,1.0794.0915v-.1166c0-.5282-.3267-.7874-.9879-.7874a2.41,2.41,0,0,0-1.3222.3681l-.3943-.6949a3.87,3.87,0,0,1,1.7078-.4433C133.7111,43.86,134.2807,44.5215,134.2807,45.5682Zm-.8376.8452v-.1079a4.6452,4.6452,0,0,0-.97-.1176c-.5947,0-1.0217.15-1.0217.6284,0,.4433.4019.6361.8616.6361A1.0512,1.0512,0,0,0,133.4431,46.4134Z" transform="translate(-1.0432 -1.8026)" fill="#fff"/><path d="M136.5222,47.008a1.9054,1.9054,0,0,0,1.1894.427c.57,0,.8038-.2429.8038-.4771,0-.2929-.2255-.4607-.9541-.6273-.93-.2179-1.39-.6535-1.39-1.2983s.5686-1.1633,1.54-1.1633a2.9509,2.9509,0,0,1,1.6163.4521l-.4694.67a1.8952,1.8952,0,0,0-1.1306-.3692c-.477,0-.72.1927-.72.4193,0,.293.3017.427.8713.5609,1.1055.268,1.4737.7537,1.4737,1.3648,0,.6611-.57,1.2307-1.6414,1.2307a2.7408,2.7408,0,0,1-1.6577-.5271Z" transform="translate(-1.0432 -1.8026)" fill="#fff"/><path d="M143.6792,48.0635a4.6128,4.6128,0,0,1-.9966.1339.9983.9983,0,0,1-1.0968-1.1393V44.7393H140.9v-.77h.6862V42.58h.8376v1.39h1.1632v.77h-1.1632v2.2023c0,.3344.1165.4684.3594.4684a3.37,3.37,0,0,0,.7624-.109Z" transform="translate(-1.0432 -1.8026)" fill="#fff"/><path d="M147.48,44.0172a1.4252,1.4252,0,1,1-1.4235-1.4268A1.4233,1.4233,0,0,1,147.48,44.0172Zm-.196,0a1.2286,1.2286,0,1,0-1.2275,1.2275A1.2293,1.2293,0,0,0,147.2844,44.0172Zm-.8932.1383.3736.6524h-.31l-.3344-.6208h-.3768v.6056h-.26v-1.57h.6883a.4754.4754,0,0,1,.5392.4836A.4487.4487,0,0,1,146.3912,44.1555Zm-.22-.22c.1852,0,.2756-.0752.2756-.2287s-.09-.232-.2756-.232h-.428v.4607Z" transform="translate(-1.0432 -1.8026)" fill="#fff"/></svg>
