<?xml version="1.0" encoding="utf-8"?>
<!-- Generator: Adobe Illustrator 19.0.0, SVG Export Plug-In . SVG Version: 6.00 Build 0)  -->
<svg version="1.1" id="Layer_1" xmlns="http://www.w3.org/2000/svg" xmlns:xlink="http://www.w3.org/1999/xlink" x="0px" y="0px"
	 viewBox="-76 273.4 457.4 247.6"  width="578" height="243.44" style="enable-background:new -76 273.4 457.4 247.6;" xml:space="preserve">
<style type="text/css">
	.st0{fill:#ffffff;}
	.st1{fill:none;}
	.st2{display:none;}
	.st3{display:inline;}
	.st4{font-family:'ArialMT';}
	.st5{font-size:47px;}
	.st6{letter-spacing:-1;}
	.st7{letter-spacing:8;}
</style>
<g id="p2">
	<g>
		<circle class="st0" cx="-47.1" cy="341.9" r="8.5"/>
		<circle class="st0" cx="52.9" cy="321.9" r="8.5"/>
		<circle class="st0" cx="132.9" cy="341.9" r="8.5"/>
		<circle class="st0" cx="92.9" cy="321.9" r="8.5"/>
		<circle class="st0" cx="132.9" cy="381.9" r="8.5"/>
		<circle class="st0" cx="192.9" cy="401.9" r="8.5"/>
		<circle class="st0" cx="252.9" cy="421.9" r="8.5"/>
		<circle class="st0" cx="72.9" cy="341.9" r="8.5"/>
		<circle class="st0" cx="72.9" cy="381.9" r="8.5"/>
		<circle class="st0" cx="-27.1" cy="361.9" r="8.5"/>
		<circle class="st0" cx="-7.1" cy="421.9" r="8.5"/>
		<circle class="st0" cx="-47.1" cy="401.9" r="8.5"/>
		<circle class="st0" cx="52.9" cy="401.9" r="8.5"/>
		<circle class="st0" cx="332.9" cy="461.9" r="8.5"/>
		<circle class="st0" cx="-27.1" cy="461.9" r="8.5"/>
		<circle class="st0" cx="172.9" cy="381.9" r="8.5"/>
		<circle class="st0" cx="192.9" cy="301.9" r="8.5"/>
		<circle class="st0" cx="152.9" cy="441.9" r="8.5"/>
		<circle class="st0" cx="272.9" cy="381.9" r="8.5"/>
		<circle class="st0" cx="292.9" cy="321.9" r="8.5"/>
		<circle class="st0" cx="332.9" cy="361.9" r="8.5"/>
		<circle class="st0" cx="312.9" cy="421.9" r="8.5"/>
		<circle class="st0" cx="-27.1" cy="301.9" r="8.5"/>
		<circle class="st0" cx="32.9" cy="281.9" r="8.5"/>
	</g>
	<g>
		<circle class="st0" cx="-47.1" cy="361.9" r="8.5"/>
		<circle class="st0" cx="52.9" cy="361.9" r="8.5"/>
		<circle class="st0" cx="52.9" cy="381.9" r="8.5"/>
		<circle class="st0" cx="112.9" cy="341.9" r="8.5"/>
		<circle class="st0" cx="172.9" cy="281.9" r="8.5"/>
		<circle class="st0" cx="192.9" cy="381.9" r="8.5"/>
		<circle class="st0" cx="192.9" cy="441.9" r="8.5"/>
		<circle class="st0" cx="372.9" cy="441.9" r="8.5"/>
		<circle class="st0" cx="352.9" cy="421.9" r="8.5"/>
		<circle class="st0" cx="-7.1" cy="401.9" r="8.5"/>
		<circle class="st0" cx="132.9" cy="441.9" r="8.5"/>
		<circle class="st0" cx="52.9" cy="461.9" r="8.5"/>
		<circle class="st0" cx="352.9" cy="321.9" r="8.5"/>
		<circle class="st0" cx="292.9" cy="361.9" r="8.5"/>
		<circle class="st0" cx="192.9" cy="321.9" r="8.5"/>
		<circle class="st0" cx="152.9" cy="361.9" r="8.5"/>
		<circle class="st0" cx="132.9" cy="301.9" r="8.5"/>
		<circle class="st0" cx="272.9" cy="401.9" r="8.5"/>
		<circle class="st0" cx="312.9" cy="401.9" r="8.5"/>
		<circle class="st0" cx="272.9" cy="341.9" r="8.5"/>
		<circle class="st0" cx="292.9" cy="301.9" r="8.5"/>
		<circle class="st0" cx="312.9" cy="321.9" r="8.5"/>
		<circle class="st0" cx="312.9" cy="341.9" r="8.5"/>
		<circle class="st0" cx="332.9" cy="381.9" r="8.5"/>
		<circle class="st0" cx="-47.1" cy="301.9" r="8.5"/>
		<circle class="st0" cx="-7.1" cy="441.9" r="8.5"/>
		<circle class="st0" cx="32.9" cy="421.9" r="8.5"/>
	</g>
	<g>
		<circle class="st0" cx="-67.1" cy="321.9" r="8.5"/>
		<circle class="st0" cx="-47.1" cy="381.9" r="8.5"/>
		<circle class="st0" cx="32.9" cy="341.9" r="8.5"/>
		<circle class="st0" cx="112.9" cy="361.9" r="8.5"/>
		<circle class="st0" cx="112.9" cy="321.9" r="8.5"/>
		<circle class="st0" cx="132.9" cy="361.9" r="8.5"/>
		<circle class="st0" cx="192.9" cy="421.9" r="8.5"/>
		<circle class="st0" cx="132.9" cy="321.9" r="8.5"/>
		<circle class="st0" cx="292.9" cy="341.9" r="8.5"/>
		<circle class="st0" cx="252.9" cy="401.9" r="8.5"/>
		<circle class="st0" cx="252.9" cy="441.9" r="8.5"/>
		<circle class="st0" cx="372.9" cy="421.9" r="8.5"/>
		<circle class="st0" cx="352.9" cy="401.9" r="8.5"/>
		<circle class="st0" cx="352.9" cy="381.9" r="8.5"/>
		<circle class="st0" cx="372.9" cy="341.9" r="8.5"/>
		<circle class="st0" cx="352.9" cy="441.9" r="8.5"/>
		<circle class="st0" cx="72.9" cy="361.9" r="8.5"/>
		<circle class="st0" cx="72.9" cy="321.9" r="8.5"/>
		<circle class="st0" cx="-27.1" cy="341.9" r="8.5"/>
		<circle class="st0" cx="-27.1" cy="321.9" r="8.5"/>
		<circle class="st0" cx="-27.1" cy="381.9" r="8.5"/>
		<circle class="st0" cx="-27.1" cy="421.9" r="8.5"/>
		<circle class="st0" cx="72.9" cy="401.9" r="8.5"/>
		<circle class="st0" cx="112.9" cy="421.9" r="8.5"/>
		<circle class="st0" cx="172.9" cy="441.9" r="8.5"/>
		<circle class="st0" cx="192.9" cy="461.9" r="8.5"/>
		<circle class="st0" cx="132.9" cy="421.9" r="8.5"/>
		<circle class="st0" cx="112.9" cy="421.9" r="8.5"/>
		<circle class="st0" cx="92.9" cy="441.9" r="8.5"/>
		<circle class="st0" cx="172.9" cy="361.9" r="8.5"/>
		<circle class="st0" cx="212.9" cy="401.9" r="8.5"/>
		<circle class="st0" cx="212.9" cy="421.9" r="8.5"/>
		<circle class="st0" cx="212.9" cy="321.9" r="8.5"/>
		<circle class="st0" cx="232.9" cy="281.9" r="8.5"/>
		<circle class="st0" cx="172.9" cy="301.9" r="8.5"/>
		<circle class="st0" cx="152.9" cy="381.9" r="8.5"/>
		<circle class="st0" cx="152.9" cy="301.9" r="8.5"/>
		<circle class="st0" cx="292.9" cy="401.9" r="8.5"/>
		<circle class="st0" cx="332.9" cy="401.9" r="8.5"/>
		<circle class="st0" cx="232.9" cy="361.9" r="8.5"/>
		<circle class="st0" cx="272.9" cy="361.9" r="8.5"/>
		<circle class="st0" cx="312.9" cy="301.9" r="8.5"/>
		<circle class="st0" cx="272.9" cy="301.9" r="8.5"/>
		<circle class="st0" cx="332.9" cy="341.9" r="8.5"/>
		<circle class="st0" cx="272.9" cy="421.9" r="8.5"/>
		<circle class="st0" cx="232.9" cy="441.9" r="8.5"/>
		<circle class="st0" cx="72.9" cy="301.9" r="8.5"/>
		<circle class="st0" cx="52.9" cy="301.9" r="8.5"/>
		<circle class="st0" cx="-67.1" cy="281.9" r="8.5"/>
		<circle class="st0" cx="352.9" cy="281.9" r="8.5"/>
		<circle class="st0" cx="52.9" cy="421.9" r="8.5"/>
		<circle class="st0" cx="-67.1" cy="441.9" r="8.5"/>
		<circle class="st0" cx="32.9" cy="441.9" r="8.5"/>
		<circle class="st0" cx="12.9" cy="421.9" r="8.5"/>
		<circle class="st0" cx="12.9" cy="441.9" r="8.5"/>
	</g>
	<rect x="-174" y="175.2" class="st1" width="653.4" height="451.3"/>
	<g>
		<path class="st0" d="M271.4,516c0,2.8-2.3,5.1-5.1,5.1c-2.8,0-5.1-2.3-5.1-5.1s2.3-5.1,5.1-5.1C269.1,510.8,271.4,513.1,271.4,516
			"/>
		<path class="st0" d="M266.3,521.8c-3.2,0-5.9-2.6-5.9-5.9c0-3.2,2.6-5.9,5.9-5.9c3.2,0,5.9,2.6,5.9,5.9
			C272.2,519.2,269.5,521.8,266.3,521.8z M266.3,511.6c-2.4,0-4.4,2-4.4,4.4c0,2.4,2,4.4,4.4,4.4s4.4-2,4.4-4.4
			C270.7,513.5,268.7,511.6,266.3,511.6z"/>
	</g>
	<g>
		<path class="st0" d="M-14.9,518.5l-11.5-27.1c-0.2-0.4-0.3-0.8-0.3-1.4c0-1.6,1.3-2.8,2.9-2.8c1.5,0,2.5,0.8,3,2.1l9.5,23.7
			l9.6-23.9c0.4-1,1.4-1.9,2.8-1.9c1.6,0,2.9,1.2,2.9,2.8c0,0.4-0.1,0.9-0.3,1.2l-11.6,27.3c-0.6,1.5-1.7,2.3-3.3,2.3h-0.3
			C-13.2,520.9-14.3,520-14.9,518.5z"/>
		<path class="st0" d="M6.8,488.9c0-1.7,1.4-2.8,3.2-2.8c1.8,0,3.2,1.1,3.2,2.8v0.3c0,1.7-1.4,2.8-3.2,2.8c-1.8,0-3.2-1.1-3.2-2.8
			V488.9z M7.2,498.2c0-1.6,1.2-2.9,2.8-2.9c1.6,0,2.9,1.3,2.9,2.9v19.6c0,1.6-1.3,2.8-2.9,2.8s-2.8-1.2-2.8-2.8V498.2z"/>
		<path class="st0" d="M18.1,517.9c-0.6-0.3-1.1-1-1.1-2c0-1.3,1-2.3,2.3-2.3c0.5,0,0.9,0.1,1.2,0.3c2.4,1.6,4.9,2.4,7.1,2.4
			c2.4,0,3.9-1,3.9-2.7v-0.1c0-1.9-2.6-2.6-5.5-3.5c-3.7-1-7.8-2.5-7.8-7.3v-0.1c0-4.7,3.9-7.6,8.8-7.6c2.6,0,5.4,0.8,7.8,2
			c0.8,0.4,1.4,1.2,1.4,2.2c0,1.3-1,2.3-2.3,2.3c-0.5,0-0.8-0.1-1.1-0.3c-2-1-4.1-1.7-5.8-1.7c-2.2,0-3.5,1-3.5,2.4v0.1
			c0,1.8,2.7,2.6,5.6,3.5c3.6,1.1,7.7,2.8,7.7,7.2v0.1c0,5.2-4,7.8-9.2,7.8C24.4,520.9,20.9,519.9,18.1,517.9z"/>
		<path class="st0" d="M41,488.9c0-1.7,1.4-2.8,3.2-2.8s3.2,1.1,3.2,2.8v0.3c0,1.7-1.4,2.8-3.2,2.8s-3.2-1.1-3.2-2.8V488.9z
			 M41.4,498.2c0-1.6,1.2-2.9,2.8-2.9c1.6,0,2.9,1.3,2.9,2.9v19.6c0,1.6-1.3,2.8-2.9,2.8s-2.8-1.2-2.8-2.8V498.2z"/>
		<path class="st0" d="M54.4,513.6v-13.1h-0.9c-1.4,0-2.4-1.1-2.4-2.4c0-1.4,1.1-2.4,2.4-2.4h0.9v-4.3c0-1.6,1.3-2.8,2.9-2.8
			c1.6,0,2.8,1.3,2.8,2.8v4.2h4.5c1.4,0,2.5,1.1,2.5,2.4c0,1.4-1.1,2.4-2.5,2.4H60v12.2c0,2.2,1.1,3.1,3.1,3.1
			c0.7,0,1.2-0.1,1.4-0.1c1.3,0,2.4,1,2.4,2.4c0,1-0.7,1.9-1.5,2.2c-1.2,0.4-2.4,0.7-3.9,0.7C57.3,520.8,54.4,519,54.4,513.6z"/>
		<path class="st0" d="M78.9,492.9h-8c-1.5,0-2.7-1.2-2.7-2.7s1.2-2.7,2.7-2.7h21.9c1.5,0,2.6,1.2,2.6,2.7s-1.2,2.7-2.6,2.7h-8v24.9
			c0,1.6-1.3,2.9-2.9,2.9s-2.9-1.3-2.9-2.9v-24.9H78.9z"/>
		<path class="st0" d="M100.3,488.7c0-1.6,1.2-2.8,2.8-2.8s2.9,1.3,2.9,2.8v10.7c1.6-2.3,3.9-4.3,7.8-4.3c5.6,0,8.8,3.8,8.8,9.5
			v13.3c0,1.6-1.2,2.8-2.8,2.8s-2.9-1.2-2.9-2.8v-11.5c0-3.9-1.9-6.1-5.3-6.1c-3.3,0-5.6,2.3-5.6,6.2v11.4c0,1.6-1.3,2.8-2.9,2.8
			c-1.6,0-2.8-1.2-2.8-2.8V488.7z"/>
		<path class="st0" d="M140.8,521c-7.2,0-12.7-5.2-12.7-12.9V508c0-7.1,5-12.9,12.1-12.9c7.9,0,11.8,6.5,11.8,12.2
			c0,1.6-1.2,2.7-2.7,2.7h-15.6c0.6,4,3.5,6.3,7.1,6.3c2.4,0,4.3-0.8,5.9-2.2c0.4-0.3,0.8-0.5,1.5-0.5c1.3,0,2.3,1,2.3,2.3
			c0,0.7-0.3,1.3-0.8,1.7C147.5,519.7,144.7,521,140.8,521z M146.5,506.3c-0.4-3.7-2.5-6.5-6.3-6.5c-3.5,0-5.9,2.7-6.4,6.5H146.5z"
			/>
		<path class="st0" d="M157.9,506.5v-16.3c0-1.6,1.3-2.9,2.9-2.9c1.6,0,2.9,1.3,2.9,2.9v16.1c0,6.1,3.1,9.4,8.3,9.4
			c5.1,0,8.3-3.1,8.3-9.1v-16.3c0-1.6,1.3-2.9,2.9-2.9s2.9,1.3,2.9,2.9v16c0,9.8-5.5,14.8-14.1,14.8
			C163.4,520.9,157.9,516,157.9,506.5z"/>
		<path class="st0" d="M191.3,516.8c-0.7-0.5-1.1-1.3-1.1-2.2c0-1.5,1.2-2.7,2.7-2.7c0.8,0,1.3,0.2,1.7,0.5c2.7,2.2,5.6,3.4,9.2,3.4
			s5.8-1.7,5.8-4.1v-0.1c0-2.3-1.3-3.6-7.4-5c-7-1.7-11-3.8-11-9.8v-0.1c0-5.6,4.7-9.5,11.2-9.5c4.1,0,7.5,1.1,10.4,3.1
			c0.7,0.4,1.3,1.2,1.3,2.3c0,1.5-1.2,2.7-2.7,2.7c-0.6,0-1-0.1-1.5-0.4c-2.5-1.6-5-2.5-7.6-2.5c-3.4,0-5.4,1.7-5.4,3.9v0.1
			c0,2.5,1.5,3.7,7.8,5.2c7,1.7,10.5,4.2,10.5,9.6v0.1c0,6.2-4.8,9.8-11.7,9.8C199.2,520.9,195,519.5,191.3,516.8z"/>
		<path class="st0" d="M218.9,516.7l12.2-27.3c0.7-1.5,1.8-2.4,3.5-2.4h0.3c1.6,0,2.8,0.9,3.4,2.4l12.2,27.3
			c0.2,0.4,0.3,0.8,0.3,1.2c0,1.6-1.2,2.8-2.7,2.8c-1.4,0-2.3-0.8-2.8-2l-2.7-6.2h-16l-2.8,6.3c-0.5,1.2-1.5,1.8-2.7,1.8
			c-1.5,0-2.7-1.2-2.7-2.7C218.6,517.6,218.7,517.1,218.9,516.7z M240.5,507.4l-5.8-13.3l-5.8,13.3H240.5z"/>
		<path class="st0" d="M304.6,517.8c0,1.6-1.3,2.8-2.8,2.8c-1.6,0-2.9-1.2-2.9-2.8v-1.6c-1.8,2.6-4.4,4.7-8.5,4.7
			c-5.8,0-11.5-4.7-11.5-12.9v-0.1c0-8.2,5.6-12.9,11.5-12.9c4.1,0,6.7,2,8.5,4.4v-10.8c0-1.6,1.3-2.8,2.8-2.8
			c1.6,0,2.9,1.2,2.9,2.8V517.8z M284.7,508L284.7,508c0,4.9,3.3,8,7.1,8c3.8,0,7.2-3.2,7.2-7.9V508c0-4.8-3.4-7.9-7.2-7.9
			C287.9,500,284.7,503,284.7,508z"/>
		<path class="st0" d="M323.2,521c-7.2,0-12.7-5.2-12.7-12.9V508c0-7.1,5-12.9,12.1-12.9c7.9,0,11.8,6.5,11.8,12.2
			c0,1.6-1.2,2.7-2.7,2.7h-15.6c0.6,4,3.5,6.3,7.1,6.3c2.4,0,4.3-0.8,5.9-2.2c0.4-0.3,0.8-0.5,1.5-0.5c1.3,0,2.3,1,2.3,2.3
			c0,0.7-0.3,1.3-0.8,1.7C329.9,519.7,327.1,521,323.2,521z M328.8,506.3c-0.4-3.7-2.5-6.5-6.3-6.5c-3.5,0-5.9,2.7-6.4,6.5H328.8z"
			/>
	</g>
</g>
<g id="editable" class="st2">
	<text transform="matrix(1 0 0 1 5.6989 520.4235)" class="st3 st4 st5 st6">V</text>
	<text transform="matrix(1 0 0 1 29.3989 520.4235)" class="st3 st4 st5">i</text>
	<text transform="matrix(1 0 0 1 39.0989 520.4235)" class="st3 st4 st5">s</text>
	<text transform="matrix(1 0 0 1 56.2989 520.4235)" class="st3 st4 st5">i</text>
	<text transform="matrix(1 0 0 1 65.8989 520.4235)" class="st3 st4 st5 st6">t</text>
	<text transform="matrix(1 0 0 1 79.0989 520.4235)" class="st3 st4 st5">The</text>
	<text transform="matrix(1 0 0 1 153.1989 520.4235)" class="st3 st4 st5">U</text>
	<text transform="matrix(1 0 0 1 181.7989 520.4235)" class="st3 st4 st5">S</text>
	<text transform="matrix(1 0 0 1 203.4989 520.4235)" class="st3 st4 st5">A</text>
	<text transform="matrix(1 0 0 1 232.6989 520.4235)" class="st3 st4 st5 st7"> </text>
	<text transform="matrix(1 0 0 1 251.8989 520.4235)" class="st3 st4 st5">de</text>
</g>
</svg>
