<svg id="Ebene_1" data-name="Ebene 1" xmlns="http://www.w3.org/2000/svg" xmlns:xlink="http://www.w3.org/1999/xlink" viewBox="0 0 247.62 80.3721"><defs><radialGradient id="Unbenannter_Verlauf" cx="-786.42" cy="344.82" r="141.05" gradientTransform="matrix(0.5, 0, 0, -0.5, 443.43, 195.83)" gradientUnits="userSpaceOnUse"><stop offset="0" stop-color="#f6cc9a"/><stop offset="0.36" stop-color="#fece64"/><stop offset="0.44" stop-color="#fdc75d"/><stop offset="0.55" stop-color="#fab44a"/><stop offset="0.59" stop-color="#f8aa40"/><stop offset="0.8" stop-color="#f6a239"/><stop offset="1" stop-color="#f49724"/></radialGradient><linearGradient id="Unbenannter_Verlauf_2" x1="59.7153" y1="59.3855" x2="59.7153" y2="80.83" gradientTransform="matrix(1, 0, 0, -1, 0, 82)" gradientUnits="userSpaceOnUse"><stop offset="0.04" stop-color="#fbebc3"/><stop offset="0.85" stop-color="#fdeed6"/></linearGradient><linearGradient id="Unbenannter_Verlauf_3" x1="6.6304" y1="47.1497" x2="21.7304" y2="62.7997" gradientTransform="matrix(1, 0, 0, -1, 0, 82)" gradientUnits="userSpaceOnUse"><stop offset="0" stop-color="#f8cc5d"/><stop offset="0.39" stop-color="#f8cc5d"/><stop offset="1" stop-color="#f9d883"/></linearGradient><linearGradient id="Unbenannter_Verlauf_4" x1="40.3575" y1="50.58" x2="40.3575" y2="72.1485" gradientTransform="matrix(1, 0, 0, -1, 0, 82)" gradientUnits="userSpaceOnUse"><stop offset="0" stop-color="#f9d787"/><stop offset="1" stop-color="#fbeac2"/></linearGradient><linearGradient id="Unbenannter_Verlauf_5" x1="43.06" y1="68.53" x2="43.06" y2="81.9421" gradientTransform="matrix(1, 0, 0, -1, 0, 82)" gradientUnits="userSpaceOnUse"><stop offset="0" stop-color="#f5a04d"/><stop offset="0.16" stop-color="#f5a251"/><stop offset="0.33" stop-color="#f6a95e"/><stop offset="0.5" stop-color="#f7b574"/><stop offset="0.68" stop-color="#f9c592"/><stop offset="0.86" stop-color="#fbdab9"/><stop offset="1" stop-color="#fdecdb"/></linearGradient><linearGradient id="Unbenannter_Verlauf_6" x1="34.69" y1="68.61" x2="34.69" y2="88.83" gradientTransform="matrix(1, 0, 0, -1, 0, 82)" gradientUnits="userSpaceOnUse"><stop offset="0" stop-color="#f07e3a"/><stop offset="0.31" stop-color="#f39652"/><stop offset="0.6" stop-color="#f5a562"/><stop offset="0.84" stop-color="#f6aa67"/><stop offset="1" stop-color="#fcd2a0"/></linearGradient><linearGradient id="Unbenannter_Verlauf_7" x1="46.14" y1="78.1381" x2="55.3893" y2="78.1381" gradientTransform="matrix(1, 0, 0, -1, 0, 82)" gradientUnits="userSpaceOnUse"><stop offset="0" stop-color="#f9dbb6"/><stop offset="1" stop-color="#fbdeb5"/></linearGradient><linearGradient id="Unbenannter_Verlauf_8" x1="58.3023" y1="67.7543" x2="67.1723" y2="57.7143" gradientTransform="matrix(1, 0, 0, -1, 0, 82)" gradientUnits="userSpaceOnUse"><stop offset="0" stop-color="#fad58f"/><stop offset="1" stop-color="#f9da8f"/></linearGradient><linearGradient id="Unbenannter_Verlauf_9" x1="64.8881" y1="66.446" x2="71.2581" y2="59.246" xlink:href="#Unbenannter_Verlauf_8"/><linearGradient id="Unbenannter_Verlauf_10" x1="68.5433" y1="60.6664" x2="75.2044" y2="53.1252" xlink:href="#Unbenannter_Verlauf_8"/><linearGradient id="Unbenannter_Verlauf_11" x1="73.6071" y1="53.89" x2="73.6071" y2="67.45" gradientTransform="matrix(1, 0, 0, -1, 0, 82)" gradientUnits="userSpaceOnUse"><stop offset="0" stop-color="#f1883f"/><stop offset="1" stop-color="#f49743"/></linearGradient><linearGradient id="Unbenannter_Verlauf_12" x1="74.46" y1="58.6067" x2="76.29" y2="58.6067" gradientTransform="matrix(1, 0, 0, -1, 0, 82)" gradientUnits="userSpaceOnUse"><stop offset="0" stop-color="#f49a48"/><stop offset="1" stop-color="#f7be65"/></linearGradient><linearGradient id="Unbenannter_Verlauf_13" x1="34.8" y1="26.85" x2="23.24" y2="-6.1" gradientTransform="matrix(1, 0, 0, -1, 0, 82)" gradientUnits="userSpaceOnUse"><stop offset="0.3" stop-color="#f49837" stop-opacity="0.4"/><stop offset="0.34" stop-color="#f4a139" stop-opacity="0.49"/><stop offset="0.45" stop-color="#f5b63d" stop-opacity="0.67"/><stop offset="0.55" stop-color="#f5c641" stop-opacity="0.81"/><stop offset="0.64" stop-color="#f6d243" stop-opacity="0.92"/><stop offset="0.72" stop-color="#f6d944" stop-opacity="0.98"/><stop offset="0.78" stop-color="#f6db45"/><stop offset="1" stop-color="#f49837" stop-opacity="0.4"/></linearGradient><linearGradient id="Unbenannter_Verlauf_14" x1="2.38" y1="61.8" x2="12.65" y2="61.8" gradientTransform="matrix(1, 0, 0, -1, 0, 82)" gradientUnits="userSpaceOnUse"><stop offset="0" stop-color="#f8c74c"/><stop offset="1" stop-color="#f7de8f"/></linearGradient></defs><title>stpete-clearwater</title><path d="M80.36,40.28a40.205,40.205,0,1,1,0-.01Z" transform="translate(0 -0.0579)" fill="#4fbecf"/><path d="M92.38,22.43l.8-2.62a6.58,6.58,0,0,0,4.19,1.78c1.09,0,1.93-.42,1.93-1.36s-.58-1.21-2.49-1.66c-3-.71-4.08-2.33-4.08-4.3,0-2.42,1.91-4,4.88-4A7.82,7.82,0,0,1,102,11.63l-.73,2.4a7.37,7.37,0,0,0-3.68-1.16c-1,0-1.55.4-1.55,1.07s.39,1,1.9,1.35c3.33.78,4.68,2.17,4.68,4.57,0,3.12-2.53,4.3-5.23,4.3a7.72,7.72,0,0,1-5-1.73" transform="translate(0 -0.0579)" fill="#fff"/><polygon points="109.95 13.232 105.67 13.232 105.67 10.532 117.82 10.532 117.82 13.232 113.54 13.232 113.54 23.832 109.95 23.832 109.95 13.232" fill="#fff"/><path d="M117.73,22.27a1.79,1.79,0,1,1,0,.02v-.02" transform="translate(0 -0.0579)" fill="#fff"/><path d="M130.18,17.13a1.9,1.9,0,0,0,2.18-2.08A1.9,1.9,0,0,0,130.18,13H129v4.17Zm-4.81-6.54h5.68c3.35,0,4.88,2,4.88,4.46s-1.53,4.45-4.88,4.45H129v4.39h-3.59Z" transform="translate(0 -0.0579)" fill="#fff"/><polygon points="140.54 10.532 149.79 10.532 149.79 13.232 144.13 13.232 144.13 15.472 148.68 15.472 148.68 18.162 144.13 18.162 144.13 21.132 149.79 21.132 149.79 23.832 140.54 23.832 140.54 10.532" fill="#fff"/><polygon points="158.54 13.232 154.26 13.232 154.26 10.532 166.41 10.532 166.41 13.232 162.13 13.232 162.13 23.832 158.54 23.832 158.54 13.232" fill="#fff"/><polygon points="170.75 10.532 180 10.532 180 13.232 174.35 13.232 174.35 15.472 178.89 15.472 178.89 18.162 174.35 18.162 174.35 21.132 180 21.132 180 23.832 170.75 23.832 170.75 10.532" fill="#fff"/><path d="M92.23,40.85a6.84,6.84,0,0,1,6.7316-6.9467q.2143-.0033.4284.0067a8,8,0,0,1,4.68,1.33V38.3A6.33,6.33,0,0,0,100,36.75a3.77,3.77,0,0,0-4,4.1A3.79,3.79,0,0,0,100,45a6.29,6.29,0,0,0,4.08-1.56v3.07a8,8,0,0,1-4.68,1.33,6.84,6.84,0,0,1-7.1535-6.5115q-.01-.219-.0065-.4385" transform="translate(0 -0.0579)" fill="#fff"/><polygon points="109.8 34.142 113.39 34.142 113.39 44.742 119.04 44.742 119.04 47.452 109.8 47.452 109.8 34.142" fill="#fff"/><polygon points="123.42 34.142 132.67 34.142 132.67 36.852 127.01 36.852 127.01 39.092 131.56 39.092 131.56 41.772 127.01 41.772 127.01 44.742 132.67 44.742 132.67 47.452 123.42 47.452 123.42 34.142" fill="#fff"/><path d="M144.63,42.34l-1.43-4.19-1.44,4.19Zm-2.75-8.14h2.73l5,13.31h-3.22l-1-2.84H141l-1,2.84h-3.13Z" transform="translate(0 -0.0579)" fill="#fff"/><path d="M158.58,40.1c1.38,0,2-.62,2-1.75s-.62-1.78-2-1.78H157V40.1Zm.71,4.83-1.06-2.54H157v5.12h-3.59V34.2h6.05c3.24,0,4.64,1.95,4.64,4.1a3.73,3.73,0,0,1-2.64,3.75l1,1.91c.53,1,1.06,1.35,1.93,1.35a1.92,1.92,0,0,0,.77-.13v2.17a6.8,6.8,0,0,1-1.93.31,3.93,3.93,0,0,1-4-2.73" transform="translate(0 -0.0579)" fill="#fff"/><path d="M167.91,34.2h3.67l2.26,6.9c.11.38.37,1.66.37,1.66s.32-1.26.44-1.66l2.1-6.9h2.83l2.13,6.9c.11.4.41,1.66.41,1.66s.23-1.26.37-1.66l2.26-6.9h3.58l-4.71,13.31h-2.91l-2.26-6.81a10.1133,10.1133,0,0,1-.32-1.31c0,.09-.23.93-.34,1.31l-2.24,6.81h-2.93Z" transform="translate(0 -0.0579)" fill="#fff"/><path d="M197.59,42.34l-1.44-4.19-1.44,4.19Zm-2.76-8.14h2.74l5,13.31h-3.21l-1-2.84h-4.43l-1,2.84H189.8Z" transform="translate(0 -0.0579)" fill="#fff"/><polygon points="208.67 36.852 204.4 36.852 204.4 34.142 216.54 34.142 216.54 36.852 212.27 36.852 212.27 47.452 208.67 47.452 208.67 36.852" fill="#fff"/><polygon points="220.87 34.142 230.12 34.142 230.12 36.852 224.47 36.852 224.47 39.092 229.01 39.092 229.01 41.772 224.47 41.772 224.47 44.742 230.12 44.742 230.12 47.452 220.87 47.452 220.87 34.142" fill="#fff"/><path d="M241,40.1c1.38,0,2-.62,2-1.75s-.62-1.78-2-1.78h-1.55V40.1Zm.72,4.83-1.07-2.54h-1.2v5.12h-3.59V34.2h6.05c3.24,0,4.64,1.95,4.64,4.1a3.73,3.73,0,0,1-2.64,3.75l1,1.91c.53,1,1.06,1.35,1.93,1.35a1.94,1.94,0,0,0,.78-.13v2.17a6.9212,6.9212,0,0,1-1.93.31,3.92,3.92,0,0,1-4-2.73" transform="translate(0 -0.0579)" fill="#fff"/><path d="M92,60.05h7.42v2.24H95v2h3.52v2.22H95v4.57H92Z" transform="translate(0 -0.0579)" fill="#fff"/><path d="M103.06,60.05h3v8.77h4.69v2.24h-7.66Z" transform="translate(0 -0.0579)" fill="#fff"/><path d="M113,65.56a6.1,6.1,0,1,1,6.3736,5.8136q-.1317.006-.2636.0064a5.86,5.86,0,0,1-6.1048-5.6046Q113.0007,65.6678,113,65.56Zm9,0c0-2.12-1.08-3.49-2.92-3.49s-3,1.37-3,3.49,1.11,3.48,3,3.48S122,67.67,122,65.56Z" transform="translate(0 -0.0579)" fill="#fff"/><path d="M133.7,68.93l-.88-2.11h-1v4.24h-3v-11h5c2.68,0,3.84,1.61,3.84,3.39a3.09,3.09,0,0,1-2.19,3.11l.84,1.58c.45.82.89,1.12,1.6,1.12a1.6509,1.6509,0,0,0,.65-.11v1.8a5.8915,5.8915,0,0,1-1.6.25A3.26,3.26,0,0,1,133.7,68.93Zm-.58-4c1.13,0,1.65-.51,1.65-1.45S134.25,62,133.12,62h-1.29v2.92Z" transform="translate(0 -0.0579)" fill="#fff"/><path d="M142.35,60.05h3v11h-3Z" transform="translate(0 -0.0579)" fill="#fff"/><path d="M150,60.05h4.3c4.54,0,6.39,2.48,6.39,5.51s-1.85,5.5-6.39,5.5H150Zm4.06,8.72c2.48,0,3.6-1,3.6-3.21s-1.12-3.22-3.6-3.22H153v6.43Z" transform="translate(0 -0.0579)" fill="#fff"/><path d="M166.74,60.05h2.36l4.35,11h-2.78l-.88-2.35H166l-.86,2.35h-2.71Zm2.38,6.74-1.24-3.47-1.25,3.47Z" transform="translate(0 -0.0579)" fill="#fff"/><path d="M80.36,40.25A40.18,40.18,0,1,1,40.18.07,40.18,40.18,0,0,1,80.36,40.25Z" transform="translate(0 -0.0579)" fill="url(#Unbenannter_Verlauf)"/><path d="M50.11,1.3,45,1.17V2.92l3.61,2,4,2.42,5.22,5.12s-.07-2,3.32-1.81A19.93,19.93,0,0,1,68,12.73a7.5394,7.5394,0,0,1,2.12,1.78s.2.28,0,.38a3,3,0,0,1-1.6.25s-.25.06-.07.24c0,0,4.34,5.57,4.61,6.48,0,0,1.61,1.5,1.34.27a25.63,25.63,0,0,0-4.55-8.94A40.72,40.72,0,0,0,50.11,1.3Z" transform="translate(0 -0.0579)" fill="url(#Unbenannter_Verlauf_2)"/><path d="M14.45,16.6A26.2206,26.2206,0,0,0,5.73,28.69l7.65,4,8.24-2.83S14.24,20.08,14.45,16.6Z" transform="translate(0 -0.0579)" fill="url(#Unbenannter_Verlauf_3)"/><path d="M24.84,10.56s-2.57,11,1,19.36c0,0,10.27,0,14.13,1.5,0,0,14.77-8,16.8-7C56.73,24.47,46.88,6.06,24.84,10.56Z" transform="translate(0 -0.0579)" fill="url(#Unbenannter_Verlauf_4)"/><path d="M38.08.12,30.64,1.84,27,4.48l2.06,1.14,13.7.78L47.9,8.19l8.2,4.7.73.58,2.29-.08s-5.9-5.2-6.12-7.7c0,0-7.2-1.85-7.63-3s1.74-1.47,2.41-1.36A16.296,16.296,0,0,0,51,1.55,39.21,39.21,0,0,0,38.08.12Z" transform="translate(0 -0.0579)" fill="url(#Unbenannter_Verlauf_5)"/><path d="M38.17.12a38.74,38.74,0,0,0-24.23,9.7l-1.29,3s19.9-11.24,44.08.53c0,0-9.31-12-27.71-9.09C29,4.3,34.32.76,38.17.12Z" transform="translate(0 -0.0579)" fill="url(#Unbenannter_Verlauf_6)"/><path d="M48.2,3.27h1c.37,0,.91.48,1.23.53s.16-.32.48-.26,2,.42,1.77.69-.66.27,0,.75,2.92,1,2.65,0-4.76-2.46-6.15-2.62-3.85-.48-2.84.43A1.64,1.64,0,0,0,48.2,3.27Z" transform="translate(0 -0.0579)" fill="url(#Unbenannter_Verlauf_7)"/><path d="M56.73,13.39,59,17l6.56,7.42a13.7912,13.7912,0,0,1,4.35,1s-10.63-11.63-10.77-12Z" transform="translate(0 -0.0579)" fill="url(#Unbenannter_Verlauf_8)"/><path d="M63.7,15l2.56.06a.53.53,0,0,1,.38.22c.67.95,4.75,6.59,5.34,7.57s1.07,2.19-1.18.53-6.07-4.89-7.21-8.11C63.54,15.18,63.6,15,63.7,15Z" transform="translate(0 -0.0579)" fill="url(#Unbenannter_Verlauf_9)"/><path d="M67.85,22s5.75,8.4,8.27,6.12c0,0-1.23-1.31-1.77-1.25S70,24.6,67.85,22Z" transform="translate(0 -0.0579)" fill="url(#Unbenannter_Verlauf_10)"/><path d="M70.54,14.55S75,20.08,74.46,26.72a2.9426,2.9426,0,0,0,2,1.39C76.42,28.11,78.49,23,70.54,14.55Z" transform="translate(0 -0.0579)" fill="url(#Unbenannter_Verlauf_11)"/><path d="M74.46,20.64a23.9117,23.9117,0,0,1,.78,4.2,1.73,1.73,0,0,0,.33.72c.28.39.78,1,.71.18S75.17,20.78,74.46,20.64Z" transform="translate(0 -0.0579)" fill="url(#Unbenannter_Verlauf_12)"/><g opacity="0.8"><path d="M2.79,25.51h0A40.19,40.19,0,0,0,76.26,57.93a46.83,46.83,0,0,1-28.5,9.49C22.92,67.42,2.79,48.66,2.79,25.51Z" transform="translate(0 -0.0579)" fill="url(#Unbenannter_Verlauf_13)"/></g><path d="M77.62,54.83h0" transform="translate(0 -0.0579)" fill="#fff"/><path d="M80.27,44.39" transform="translate(0 -0.0579)" fill="#fff"/><path d="M1,49.28a14.13,14.13,0,0,0,3.26,5.79,11.69,11.69,0,0,0,8.61,3.24c6.13,0,12.1-5.63,15.68-9,.62-.59,1.17-1.11,1.64-1.52L31,47c2.57-2.42,7.91-7.47,13.44-7.47a9.07,9.07,0,0,1,9.5,8.6191q.0093.19.0105.3809a9.54,9.54,0,0,1-9.2754,9.7975q-.2022.0055-.4046.0025c-4.38,0-7.69-2.8-7.69-6.51a5.33,5.33,0,0,1,4.66-5.5,4.5,4.5,0,0,1,4.11,1.67A4.28,4.28,0,0,1,46,52.17a1.52,1.52,0,0,1-1.9793.8386L44,53a1.49,1.49,0,0,1-.8749-1.9169L43.13,51.07a1.27,1.27,0,0,0-.13-1.2,1.51,1.51,0,0,0-1.42-.5,2.38,2.38,0,0,0-1.91,2.52c0,2,2,3.52,4.66,3.52a6.53,6.53,0,0,0,6.6744-6.3823Q51.0092,48.8138,51,48.6c0-3-2.24-6-6.49-6s-9.25,4.66-11.35,6.65c-.36.33-.65.62-.89.82-.45.4-1,.89-1.56,1.45-3.91,3.68-10.43,9.82-17.77,9.82a15.51,15.51,0,0,1-8.13-2.08A39.5093,39.5093,0,0,1,1,49.28Z" transform="translate(0 -0.0579)" fill="#fff"/><path d="M68.14,55.56c-4.74,0-8-2.75-8-6.68,0-3.44,3.13-6.83,6.33-6.83s3.76,2.08,3.76,2.8a1.4,1.4,0,0,1-1.55,1.46A2.16,2.16,0,0,1,67,45.69a.3.3,0,0,0-.08-.08,1.5,1.5,0,0,0-2.04,2.2,5.16,5.16,0,0,0,3.76,1.49,4.42,4.42,0,0,0,4.5772-4.257q.0036-.0964.0028-.193c0-2.4-2.11-5.79-6.79-5.79-4.9,0-9.36,4.68-9.36,9.82,0,5.6,4.65,9.67,11.07,9.67a15.09,15.09,0,0,0,9.48-3.72h0a39.292,39.292,0,0,0,2.5-10.42C78.27,53.38,71,55.56,68.14,55.56Z" transform="translate(0 -0.0579)" fill="#fff"/><path d="M53.68,15C45.61,15,40,23.26,35.43,29.89,28.54,40.28,23,46.29,15,46.29c-5.36,0-8.16-3.73-8.16-7.42,0-4.76,4.23-7.71,8.16-7.71,3.38,0,4.28,1.84,4.28,2.94a2,2,0,0,1-2,1.89,2.38,2.38,0,0,1-2-.68,1.52,1.52,0,0,0-2-.52,1.49,1.49,0,0,0-.58,2c.09.26,1.3,2.21,4.53,2.21a5,5,0,0,0,5-4.88c0-3-2.51-5.93-7.31-5.93-5.38,0-11.19,4.09-11.19,10.7,0,5.94,4.81,10.41,11.19,10.41,9.39,0,15.55-6.5,23-17.74C43,24.15,47.7,18,53.68,18c8.15,0,9.93,6.3,9.93,8.73,0,4.4-3,9.16-7.84,9.16-4.32,0-5.93-3.12-5.93-5.09,0-1.65,1.32-4.86,3.75-4.86a2.22,2.22,0,0,1,2.4749,1.9318q.0115.0938.0151.1882a1.8,1.8,0,0,1-1.53,2,1.5,1.5,0,1,0,.7,2.91,4.76,4.76,0,0,0,3.86-4.9,5.21,5.21,0,0,0-5.339-5.0777q-.0906.0023-.181.0077c-4.36,0-6.78,4.64-6.78,7.85,0,4,3.35,8.08,9,8.08,6,0,10.87-5.45,10.87-12.15C66.64,22.23,63.12,15,53.68,15Z" transform="translate(0 -0.0579)" fill="#fff"/><path d="M2.38,26.6a4.4492,4.4492,0,0,0,1.36,1s3.93-11.27,8.91-14.8a23.9967,23.9967,0,0,0-3.52,1.95A38.7688,38.7688,0,0,0,2.38,26.6Z" transform="translate(0 -0.0579)" fill="url(#Unbenannter_Verlauf_14)"/></svg>